<?xml version="1.0" encoding="UTF-8" standalone="no"?>
<!-- Created with Inkscape (http://www.inkscape.org/) -->

<svg
   version="1.1"
   id="svg2"
   width="200"
   height="200"
   viewBox="0 0 200 200"
   sodipodi:docname="104.svg"
   inkscape:version="1.2.2 (732a01da63, 2022-12-09)"
   xmlns:inkscape="http://www.inkscape.org/namespaces/inkscape"
   xmlns:sodipodi="http://sodipodi.sourceforge.net/DTD/sodipodi-0.dtd"
   xmlns="http://www.w3.org/2000/svg"
   xmlns:svg="http://www.w3.org/2000/svg">
  <defs
     id="defs6" />
  <sodipodi:namedview
     id="namedview4"
     pagecolor="#ffffff"
     bordercolor="#000000"
     borderopacity="0.25"
     inkscape:showpageshadow="2"
     inkscape:pageopacity="0.0"
     inkscape:pagecheckerboard="0"
     inkscape:deskcolor="#d1d1d1"
     showgrid="false"
     showguides="true"
     inkscape:zoom="4"
     inkscape:cx="80.25"
     inkscape:cy="105.625"
     inkscape:window-width="1920"
     inkscape:window-height="1017"
     inkscape:window-x="-8"
     inkscape:window-y="-8"
     inkscape:window-maximized="1"
     inkscape:current-layer="g8">
    <sodipodi:guide
       position="53.658537,140.2439"
       orientation="1,0"
       id="guide2374"
       inkscape:locked="false" />
    <sodipodi:guide
       position="55.365854,125.36585"
       orientation="0,-1"
       id="guide2376"
       inkscape:locked="false" />
  </sodipodi:namedview>
  <g
     inkscape:groupmode="layer"
     inkscape:label="Image"
     id="g8">
    <rect
       style="fill:#e0e5e9;fill-opacity:1"
       id="rect2916"
       width="224.89445"
       height="224.20459"
       x="-8.2783232"
       y="-5.8638124" />
    <path
       id="path2449"
       style="fill:#fc8317;fill-opacity:1"
       d="m 71.456181,68.110572 c -11.429408,0.01598 -21.749384,6.201932 -27.263672,15.832031 -2.204279,4.859925 -3.346241,10.134252 -3.34961,15.470706 -3.13e-4,20.717261 16.79446,37.512031 37.511719,37.511721 20.717259,3.1e-4 37.512022,-16.79446 37.511712,-37.511721 l -12.25781,0.16211 c -0.43836,13.668451 -11.633131,24.528891 -25.308589,24.552731 -14.008689,-3.4e-4 -25.36489,-11.35654 -25.365235,-25.365231 3.4e-4,-14.008692 11.356543,-25.364896 25.365235,-25.365238 7.862361,0.0024 15.279162,3.650563 20.080078,9.876953 C 92.860976,74.184175 82.867744,68.110666 71.456181,68.110572 Z m 26.923828,15.164062 c 3.884691,18.950846 0,-2.4e-4 0,-2.4e-4 z"
       sodipodi:nodetypes="cccccccccccccc" />
    <path
       style="fill:#686868;fill-opacity:1"
       d="M 33.672465,75.327535 21.599648,75.205718 33.609858,62.827535 h 12.562607 l 0.02494,17.5 3.737533,-4.014442 c 5.863159,-6.29755 10.677187,-9.52088 17.296001,-11.580887 14.317004,-4.455952 29.506446,-0.397092 39.223311,10.48109 3.79256,4.245835 6.92634,11.40827 8.19399,16.169467 0.56549,2.123956 1.11766,7.039571 1.25182,8.393702 l -12.45573,0.05107 -0.61723,-4.503198 C 101.58044,86.229055 94.551082,76.641795 85.73592,72.013882 81.400768,69.73795 78.521389,68.110155 71.223907,68.288282 61.216965,68.532545 56.77223,71.5165 50.247561,78.106395 c -6.669975,6.736653 -8.577618,11.688592 -8.560284,22.221135 0.0118,7.17259 0.853801,9.8359 2.25,13.87712 0.47668,1.37973 1.090559,2.45209 1.869723,3.87535 l -3.89e-4,18.37876 -11.605242,0.36877 z M 152.17247,121.82753 h -49.14685 l 60.85457,-58.583442 0.79228,48.083442 15.5,0.0963 v 10.40367 h -16 v 15 h -12 z m -0.7343,-32.999995 -21.12819,22.317175 21.36249,0.18282 z"
       id="path2471"
       sodipodi:nodetypes="cccccssssccsssssscccccccccccccccccc" />
  </g>
</svg>
