<?xml version="1.0" encoding="UTF-8" standalone="no"?>
<svg
   viewBox="0 0 190.55634 190.55634"
   shape-rendering="geometricPrecision"
   version="1.1"
   id="svg6"
   sodipodi:docname="aaas.svg"
   width="190.55634"
   height="190.55634"
   inkscape:version="1.2.2 (732a01da63, 2022-12-09)"
   xmlns:inkscape="http://www.inkscape.org/namespaces/inkscape"
   xmlns:sodipodi="http://sodipodi.sourceforge.net/DTD/sodipodi-0.dtd"
   xmlns="http://www.w3.org/2000/svg"
   xmlns:svg="http://www.w3.org/2000/svg">
  <defs
     id="defs10" />
  <sodipodi:namedview
     id="namedview8"
     pagecolor="#ffffff"
     bordercolor="#000000"
     borderopacity="0.25"
     inkscape:showpageshadow="2"
     inkscape:pageopacity="0.0"
     inkscape:pagecheckerboard="0"
     inkscape:deskcolor="#d1d1d1"
     showgrid="false"
     inkscape:zoom="2.7921162"
     inkscape:cx="90.970425"
     inkscape:cy="74.674542"
     inkscape:window-width="1920"
     inkscape:window-height="1017"
     inkscape:window-x="-8"
     inkscape:window-y="-8"
     inkscape:window-maximized="1"
     inkscape:current-layer="svg6" />
  <title
     id="title2">Science</title>
  <rect
     style="fill:#ffffff;stroke:#000000;stroke-width:0.378;stroke-linejoin:round;paint-order:markers stroke fill"
     id="rect899"
     width="190.17833"
     height="190.17833"
     x="0.189"
     y="0.189" />
  <path
     d="m 8.1424631,120.07204 -2.1023694,3.29461 H 3.8063836 L 3.4123615,106.89359 h 1.5766393 c 2.7590728,7.51168 6.8321032,14.62796 14.9783482,14.62796 5.780827,0 8.671424,-3.55814 8.671424,-8.82933 0,-4.34893 -2.102185,-7.51168 -6.437897,-9.35677 -3.678825,-1.5812 -6.175217,-2.50384 -9.854226,-4.216887 C 7.4853923,96.87808 4.594795,92.92473 4.594795,86.730897 c 0,-7.511678 5.781195,-13.046588 13.53305,-13.046588 3.284619,0 7.489174,1.449702 9.854041,3.426469 l 1.970845,-3.162937 h 2.365051 l 0.394022,16.077668 H 31.135165 C 28.507433,81.986583 25.354154,75.924608 16.813887,75.924608 c -1.839321,0 -6.569422,1.713234 -6.569422,7.248145 0,4.348741 1.839504,6.720898 5.781194,9.093055 3.153279,1.844909 6.437898,2.767547 9.328495,4.217066 5.255464,2.635689 9.197154,5.534906 9.197154,12.782876 0,8.56599 -6.438081,14.62796 -15.109689,14.62796 -5.518146,-0.39539 -9.328495,-2.10862 -11.2993396,-3.82167 z M 36.128131,106.49838 c 0,-8.697661 5.518146,-16.736587 14.321095,-16.736587 6.569422,0 9.854041,3.821676 9.854041,8.1706 0,2.372157 -1.313774,3.953537 -3.547484,3.953537 -1.313774,0 -3.810166,-0.79078 -3.810166,-3.558147 0,-2.899221 0.788412,-3.031079 0.788412,-4.34874 -0.394206,-2.108625 -1.313958,-2.504015 -3.416144,-2.504015 -3.810349,0 -7.357834,3.690001 -7.357834,14.364432 0,8.56581 3.021938,14.49611 8.540268,14.49611 4.335895,0 6.963628,-2.24049 8.934473,-6.32569 l 1.445298,1.05431 c -2.365051,4.61246 -6.832287,8.43413 -11.82507,8.43413 -9.328495,0 -13.927072,-7.24796 -13.927072,-17.00012 z M 65.690256,77.37431 c 0,-2.372157 1.839504,-4.480598 4.204371,-4.480598 2.627733,0 4.335896,1.844909 4.335896,4.217066 0,2.503831 -1.839504,4.612273 -4.335896,4.612273 -2.364867,0 -4.204371,-1.976767 -4.204371,-4.348741 z m -3.021754,43.75185 c 1.050909,-0.13167 1.970661,-0.26353 2.890413,-0.52706 1.182434,-0.39539 1.70798,-1.71323 1.70798,-3.16275 V 97.141613 c -0.131341,-1.449519 -0.656887,-2.767364 -1.70798,-3.557961 -0.788411,-0.527064 -2.759073,-1.317844 -3.810349,-1.317844 v -1.317845 l 11.430864,-0.79078 0.394022,0.527064 v 26.356893 c 0,1.44952 0.657071,2.63551 1.708164,3.29443 0.919752,0.52706 2.102186,0.79059 2.890414,0.79059 v 1.44971 H 62.799659 v -1.44971 h -0.131341 z m 34.029361,-18.84503 c 0,-5.139334 -0.919752,-10.806102 -5.386989,-10.806102 -3.810166,0 -6.569422,4.34874 -6.700763,11.069822 l 12.087752,-0.26353 z m -18.919856,4.08539 c 0,-8.434127 4.992783,-16.604727 13.532867,-16.604727 8.802946,0 12.087756,6.325691 12.087756,13.573657 v 0.65892 H 84.610111 v 0.79078 c 0,9.09305 2.627732,15.55042 9.197154,15.55042 4.730102,0 6.438085,-1.97677 8.802955,-6.32569 l 1.31396,0.79078 c -2.23372,5.00784 -6.56943,8.56599 -11.824894,8.56599 -9.722885,0.13167 -14.321279,-7.64335 -14.321279,-17.00013 z m 26.406623,14.45125 c 1.04145,-0.1303 1.95276,-0.26078 2.86389,-0.52155 1.17176,-0.39126 1.69249,-1.56486 1.69249,-3.12971 V 97.083855 c -0.13032,-1.434372 -0.65104,-2.868743 -1.69249,-3.65126 -0.65086,-0.521557 -2.08289,-1.043113 -3.12434,-1.173593 v -1.304074 l 10.54478,-0.782517 0.52072,0.521557 v 4.694737 h 0.13014 c 2.47348,-2.608147 4.81682,-5.73785 10.02406,-5.73785 5.72795,0 8.46188,4.433777 8.46188,11.084445 v 16.17043 c 0,1.56467 0.52054,2.60815 1.56217,3.12971 0.91131,0.39125 1.69231,0.65203 2.86407,0.78233 v 1.43456 h -15.36142 v -1.43456 c 1.04126,-0.1303 2.08271,-0.26078 2.86388,-0.52155 1.17158,-0.39126 1.69231,-1.56486 1.69231,-3.12971 V 100.605 c 0,-4.825037 -2.34317,-7.433183 -4.94696,-7.433183 -4.29592,0 -6.7694,2.868925 -7.42044,4.564256 v 19.038997 c 0,1.56485 0.5209,2.60815 1.56235,3.1297 0.78099,0.52156 1.95275,0.78252 2.86407,0.78252 v 1.43437 h -15.23166 v -1.30407 h 0.13032 z m 32.67561,-14.47492 c 0,-8.606777 5.46768,-16.561697 14.18984,-16.561697 6.50913,0 9.76378,3.78174 9.76378,8.085219 0,2.347368 -1.3019,3.912218 -3.51492,3.912218 -1.3019,0 -3.77538,-0.78252 -3.77538,-3.52096 0,-2.868925 0.78117,-2.999405 0.78117,-4.303297 -0.39058,-2.08659 -1.3019,-2.477848 -3.38479,-2.477848 -3.7752,0 -7.29012,3.651442 -7.29012,14.214325 0,8.4763 2.99402,14.34463 8.4617,14.34463 4.29611,0 6.8999,-2.21707 8.85248,-6.25959 l 1.43203,1.04329 c -2.34334,4.56426 -6.76958,8.346 -11.71636,8.346 -9.24306,0 -13.79943,-7.17222 -13.79943,-16.82247 z m 44.39232,-4.17318 c 0,-5.085633 -0.91149,-10.693185 -5.33755,-10.693185 -3.77537,0 -6.50912,4.303297 -6.63944,10.954145 l 11.97681,-0.26078 z m -18.74639,4.0427 c 0,-8.345998 4.94696,-16.431217 13.40884,-16.431217 8.72216,0 11.97664,6.259589 11.97664,13.431807 v 0.65204 h -18.61608 v 0.78252 c 0,8.99803 2.6038,15.38792 9.11274,15.38792 4.68669,0 6.379,-1.95611 8.72234,-6.25959 l 1.30172,0.78251 c -2.21321,4.95552 -6.50913,8.47648 -11.71636,8.47648 -9.76361,0.1303 -14.18984,-7.56348 -14.18984,-16.82247 z"
     id="path4" />
</svg>
