<svg xmlns="http://www.w3.org/2000/svg" viewBox="0 0 185 51" shape-rendering="geometricPrecision">
  <title>Science</title>
  <path d="M4.73010157 47.178324L2.62773215 50.4729356.394022053 50.4729356 0 33.9998776 1.57663929 33.9998776C4.33571213 41.5115553 8.40874288 48.6278429 16.5549881 48.6278429 22.3358151 48.6278429 25.2264123 45.0696991 25.2264123 39.7985042 25.2264123 35.4495801 23.1242266 32.2868265 18.7885145 30.4417338 15.1096895 28.8605406 12.613298 27.9379024 8.93428931 26.2248513 4.07303076 23.9843685 1.18243354 20.0310182 1.18243354 13.8371851 1.18243354 6.32550737 6.96362797.790596598 14.7154837.790596598 18.000103.790596598 22.2046581 2.24029916 24.5695252 4.21706613L26.5403703 1.0541288 28.9054211 1.0541288 29.2994431 17.1317967 27.7228038 17.1317967C25.0950717 9.09287093 21.9417931 3.03089576 13.4015258 3.03089576 11.5622052 3.03089576 6.83210359 4.74413053 6.83210359 10.2790413 6.83210359 14.6277817 8.67160795 16.9999388 12.613298 19.3720959 15.7665766 21.2170049 19.0511959 22.1396431 21.9417931 23.589162 27.1972574 26.2248513 31.1389475 29.1240728 31.1389475 36.3720347 31.1389475 44.9380248 24.7008659 51 16.029258 51 10.5111123 50.6046099 6.70076291 48.8913751 4.72991787 47.178324L4.73010157 47.178324zM32.7157704 33.6046711C32.7157704 24.9070066 38.2339161 16.8680809 47.0368647 16.8680809 53.606287 16.8680809 56.8909062 20.6897569 56.8909062 25.0386809 56.8909062 27.410838 55.577132 28.9922148 53.3434219 28.9922148 52.0296477 28.9922148 49.5332562 28.2014346 49.5332562 25.434071 49.5332562 22.5348496 50.3216677 22.4029916 50.3216677 21.0853306 49.927462 18.9767057 49.0077098 18.5813156 46.9055241 18.5813156 43.0951747 18.5813156 39.5476903 22.2713174 39.5476903 32.9457488 39.5476903 41.5115553 42.5696282 47.4418562 48.0879576 47.4418562 52.4238534 47.4418562 55.0515856 45.2013734 57.0224306 41.1161652L58.4677292 42.1704776C56.1026784 46.7829339 51.6354419 50.6046099 46.642659 50.6046099 37.3141639 50.6046099 32.7155867 43.356648 32.7155867 33.6044874L32.7157704 33.6046711zM62.2778949 4.48059833C62.2778949 2.10844124 64.1173993 0 66.4822664 0 69.1099985 0 70.8181622 1.84490904 70.8181622 4.21706613 70.8181622 6.72089749 68.9786578 8.82933873 66.4822664 8.82933873 64.1173993 8.82933873 62.2778949 6.85257177 62.2778949 4.48059833zM59.2561407 48.2324528C60.3070499 48.1007785 61.2268021 47.9689206 62.1465542 47.7053884 63.3289878 47.3099983 63.8545342 45.9921536 63.8545342 44.5426347L63.8545342 24.2479007C63.7231935 22.7983818 63.1976471 21.4805371 62.1465542 20.6899405 61.3581427 20.1628761 59.3874814 19.3720959 58.3362048 19.3720959L58.3362048 18.0542512 69.7670693 17.263471 70.1610914 17.7905354 70.1610914 44.1474282C70.1610914 45.5969472 70.8181622 46.7829339 71.869255 47.4418562 72.7890072 47.9689206 73.9714408 48.2324528 74.7596686 48.2324528L74.7596686 49.6821554 59.3872977 49.6821554 59.3872977 48.2324528 59.255957 48.2324528 59.2561407 48.2324528zM93.2855017 29.3874213C93.2855017 24.2480843 92.3657495 18.5813156 87.898513 18.5813156 84.0883473 18.5813156 81.3290908 22.930056 81.1977501 29.6511372L93.2855017 29.387605 93.2855017 29.3874213zM74.3656465 33.4728132C74.3656465 25.0386809 79.3584294 16.8680809 87.898513 16.8680809 96.7014616 16.8680809 99.9862646 23.1937719 99.9862646 30.4417338L99.9862646 31.1006561 81.1977501 31.1006561 81.1977501 31.8914363C81.1977501 40.9844909 83.8254822 47.4418562 90.3949045 47.4418562 95.125006 47.4418562 96.832986 45.4650892 99.1978531 41.1161652L100.511811 41.9069454C98.2781009 46.9147918 93.9423888 50.4729356 88.6869245 50.4729356 78.96404 50.6046099 74.3656465 42.8295836 74.3656465 33.4728132zM100.772264 47.9240602C101.81371 47.7937619 102.725021 47.6632818 103.63615 47.4025035 104.807913 47.0112452 105.328636 45.8376518 105.328636 44.2728001L105.328636 24.190143C105.198319 22.7557713 104.677596 21.3213996 103.63615 20.5388829 102.985291 20.0173263 101.553257 19.4957696 100.511811 19.3652896L100.511811 18.0612162 111.05659 17.2786995 111.577314 17.8002562 111.577314 22.494993 111.707449 22.494993C114.180929 19.8868462 116.524274 16.7571429 121.731505 16.7571429 127.459459 16.7571429 130.193392 21.1909196 130.193392 27.8415847L130.193392 44.0120218C130.193392 45.5766918 130.713933 46.6201685 131.755562 47.1417252 132.666873 47.5329835 133.447866 47.7937619 134.61963 47.9240602L134.61963 49.3586136 119.258207 49.3586136 119.258207 47.9240602C120.299471 47.7937619 121.340917 47.6632818 122.122093 47.4025035 123.293675 47.0112452 123.814398 45.8376518 123.814398 44.2728001L123.814398 27.7112864C123.814398 22.8862513 121.471235 20.2781046 118.867437 20.2781046 114.571517 20.2781046 112.098037 23.1470297 111.446996 24.8423614L111.446996 43.88136C111.446996 45.4462117 111.967901 46.4895068 113.009348 47.0110634 113.790341 47.5326201 114.962105 47.7935801 115.873416 47.7935801L115.873416 49.2279518 100.641764 49.2279518 100.641764 47.9238784 100.772082 47.9238784 100.772264 47.9240602zM133.447866 33.4491366C133.447866 24.8423614 138.91555 16.8874412 147.637707 16.8874412 154.146837 16.8874412 157.401493 20.6691812 157.401493 24.9726597 157.401493 27.3200281 156.099594 28.8848798 153.886567 28.8848798 152.584668 28.8848798 150.111188 28.1023631 150.111188 25.363918 150.111188 22.494993 150.892363 22.364513 150.892363 21.0606213 150.501776 18.9740312 149.590465 18.5827729 147.507572 18.5827729 143.732375 18.5827729 140.217449 22.2342147 140.217449 32.7970999 140.217449 41.273395 143.21147 47.1417252 148.679154 47.1417252 152.975256 47.1417252 155.579053 44.9246551 157.531628 40.8821367L158.963663 41.9254317C156.620318 46.4896885 152.19408 50.2714286 147.247302 50.2714286 138.004239 50.2714286 133.447866 43.0992068 133.447866 33.4489548L133.447866 33.4491366zM177.840194 29.2759564C177.840194 24.1903247 176.928701 18.5827729 172.502645 18.5827729 168.727266 18.5827729 165.993516 22.8860696 165.863198 29.5369165L177.840012 29.2761381 177.840194 29.2759564zM159.093798 33.3186565C159.093798 24.9726597 164.040758 16.8874412 172.502645 16.8874412 181.224803 16.8874412 184.479277 23.1470297 184.479277 30.3192514L184.479277 30.9712881 165.863198 30.9712881 165.863198 31.7538048C165.863198 40.7518384 168.466996 47.1417252 174.975944 47.1417252 179.662634 47.1417252 181.354938 45.1856151 183.698283 40.8821367L185 41.6646534C182.78679 46.6201685 178.49087 50.1411303 173.283639 50.1411303 163.520035 50.2714286 159.093798 42.5776501 159.093798 33.3186565z"></path>
</svg>
