<?xml version="1.0" encoding="UTF-8" standalone="no"?>
<!-- Created with Inkscape (http://www.inkscape.org/) -->

<svg
   version="1.1"
   id="svg1099"
   width="230"
   height="230"
   viewBox="0 0 230 230"
   sodipodi:docname="canva.svg"
   inkscape:version="1.2.2 (732a01da63, 2022-12-09)"
   xmlns:inkscape="http://www.inkscape.org/namespaces/inkscape"
   xmlns:sodipodi="http://sodipodi.sourceforge.net/DTD/sodipodi-0.dtd"
   xmlns:xlink="http://www.w3.org/1999/xlink"
   xmlns="http://www.w3.org/2000/svg"
   xmlns:svg="http://www.w3.org/2000/svg">
  <defs
     id="defs1103">
    <linearGradient
       inkscape:collect="always"
       id="linearGradient3388">
      <stop
         style="stop-color:#02c1cd;stop-opacity:1;"
         offset="0"
         id="stop3384" />
      <stop
         style="stop-color:#7827eb;stop-opacity:1;"
         offset="1"
         id="stop3386" />
    </linearGradient>
    <linearGradient
       inkscape:collect="always"
       xlink:href="#linearGradient3388"
       id="linearGradient3390"
       x1="96.963615"
       y1="38.670017"
       x2="163.91469"
       y2="202.5847"
       gradientUnits="userSpaceOnUse" />
  </defs>
  <sodipodi:namedview
     id="namedview1101"
     pagecolor="#ffffff"
     bordercolor="#000000"
     borderopacity="0.25"
     inkscape:showpageshadow="2"
     inkscape:pageopacity="0.0"
     inkscape:pagecheckerboard="0"
     inkscape:deskcolor="#d1d1d1"
     showgrid="false"
     inkscape:zoom="2.4502787"
     inkscape:cx="98.968333"
     inkscape:cy="132.0258"
     inkscape:window-width="1920"
     inkscape:window-height="1017"
     inkscape:window-x="-8"
     inkscape:window-y="-8"
     inkscape:window-maximized="1"
     inkscape:current-layer="g1105" />
  <g
     inkscape:groupmode="layer"
     inkscape:label="Image"
     id="g1105">
    <circle
       style="fill:url(#linearGradient3390);fill-opacity:1;stroke-width:7.55906;stroke-linejoin:round;paint-order:markers fill stroke"
       id="path3359"
       cx="114.85571"
       cy="114.85571"
       r="114.85571" />
    <path
       id="path9357"
       style="fill:#f6faf5;fill-opacity:1;stroke-width:1.44253;stroke-linejoin:round;paint-order:markers fill stroke"
       d="m 58.723723,87.713227 c -4.27156,0.118488 -8.41513,1.687466 -11.92795,4.074332 -3.08816,2.09893 -5.77687,4.759402 -8.03888,7.72283 -4.50841,5.979511 -7.08115,13.459281 -6.91483,20.967511 0.12339,5.14639 1.66382,10.3182 4.69968,14.50602 1.30162,1.82173 2.93596,3.41554 4.85458,4.5791 3.09256,1.91249 6.85507,2.7745 10.46359,2.2272 3.94618,-0.43069 7.81521,-2.04366 10.69174,-4.81523 2.23085,-1.95824 4.18183,-4.23031 6.55448,-6.02645 0.52788,-0.27644 1.13502,0.18301 1.3453,0.6644 0.30835,0.62143 0.71967,1.18903 1.06894,1.78896 0.90261,1.45599 2.01206,2.91171 3.63518,3.60035 1.7934,0.77474 3.88455,0.62772 5.64533,-0.16452 1.15071,-0.49661 2.16792,-1.25672 3.05345,-2.13612 0.7896,-0.67548 1.44461,-1.5928 2.46832,-1.92835 0.46897,-0.1966 0.86298,0.24591 1.06657,0.61685 0.32787,0.71672 0.76844,1.38268 1.32498,1.94375 1.41384,1.46669 3.53669,2.37712 5.58137,1.97281 1.29207,-0.28216 2.4371,-0.99526 3.53748,-1.70047 0.96211,-0.62404 1.87955,-1.32922 2.887857,-1.8745 0.6098,-0.11235 1.38664,-0.0115 1.74379,0.55571 0.39013,1.10625 1.12993,2.13164 2.15682,2.72704 0.86152,0.49492 2.03815,0.55754 2.83821,-0.0947 0.97034,-0.71545 1.29082,-1.93126 1.74224,-2.98669 1.20408,-2.46572 2.33486,-5.01113 2.83248,-7.72638 0.90926,-2.15518 2.53714,-3.88361 3.73823,-5.86762 1.44763,-2.09369 2.81698,-4.27725 4.66382,-6.0519 0.37156,0.0537 0.74535,0.0935 1.11463,0.16211 0.20654,0.84428 -0.01,1.71509 0.0196,2.57076 -0.29271,4.3024 -1.48537,8.52334 -1.35288,12.85773 0.005,1.66636 0.22001,3.44963 1.27196,4.80796 1.02371,1.39886 2.58478,2.45442 4.32828,2.65525 1.01281,0.13296 2.04034,-0.11534 2.93331,-0.59434 2.28708,-1.13168 4.03643,-3.05089 5.71323,-4.9237 1.28509,-1.5014 2.41989,-3.14674 3.23931,-4.94991 0.25516,-0.14754 0.47438,-0.39233 0.75958,-0.46909 0.53454,0.20043 0.59667,0.83453 0.7385,1.31011 0.26939,0.8729 0.56301,1.73781 0.82659,2.61305 0.66816,2.13509 1.51466,4.3164 3.14232,5.91412 1.04076,0.86861 2.56652,0.89161 3.77111,0.37005 0.70109,-0.28903 1.29321,-0.77421 1.92814,-1.17881 2.6067,-1.83248 4.69326,-4.28111 6.66636,-6.75554 1.96092,-2.62467 3.5406,-5.54601 5.89156,-7.86446 0.28616,-0.3264 0.65482,-0.56204 1.07621,-0.67297 0.74445,-0.22122 1.52737,-0.28847 2.29205,-0.39022 0.69585,0.0882 1.42455,0.68429 1.36774,1.43642 -0.4111,3.08796 -0.58979,6.28159 0.19489,9.32763 0.49446,2.10494 1.54748,4.12328 3.20678,5.54059 0.90539,0.77157 1.98611,1.35791 3.14534,1.63474 1.38787,0.28447 2.8111,-0.18642 3.98892,-0.91015 1.96754,-0.98137 3.59834,-2.48464 5.35398,-3.77778 0.59242,-0.20543 1.16519,0.2781 1.46883,0.74658 0.91395,0.901 1.75927,1.87548 2.72498,2.72418 0.64129,0.53789 1.33197,1.05996 2.13162,1.33123 1.26954,0.23009 2.49396,-0.34793 3.56381,-0.96767 1.28778,-0.68643 2.54089,-1.45243 3.65248,-2.40372 1.5638,-1.30579 2.8656,-2.96706 3.57593,-4.88866 0.37974,-0.64145 0.45797,-1.57187 -0.13366,-2.11591 -0.29304,-0.3005 -0.68503,-0.52962 -1.12037,-0.48343 -0.5006,0.008 -0.93431,0.29749 -1.23649,0.67951 -1.23975,1.32195 -2.10764,2.99119 -3.57134,4.09819 -0.39576,0.26601 -0.81561,0.56378 -1.29825,0.62617 -0.56987,0.002 -1.05387,-0.56653 -0.95109,-1.13041 -0.0521,-0.7499 -0.0541,-1.57235 -0.023,-2.27803 0.0497,-1.12454 0.17904,-2.25395 0.35725,-3.33883 0.51024,-3.12039 1.35894,-6.17215 1.93518,-9.27977 0.4859,-2.29068 0.9738,-4.60025 1.03693,-6.94892 -0.0196,-0.61344 0.0564,-1.31645 -0.38805,-1.80824 -0.6145,-0.77446 -1.70915,-0.88107 -2.61729,-0.69679 -1.22512,0.20081 -2.32114,0.8717 -3.19098,1.7389 -0.34184,0.30421 -0.628,0.67512 -0.97571,0.96656 -0.54996,0.23743 -1.12832,-0.17857 -1.46868,-0.58896 -1.24728,-1.1428 -2.67897,-2.2616 -4.4076,-2.49076 -1.00912,-0.11672 -2.02304,0.10916 -2.99027,0.38015 -2.5877,0.79372 -4.73202,2.53849 -6.70967,4.32344 -1.80532,1.58823 -3.47256,3.41353 -5.65758,4.49283 -0.50081,0.24327 -1.06998,0.5279 -1.63234,0.30088 -0.39058,-0.11329 -0.6968,-0.50015 -0.61291,-0.91747 0.11124,-3.03897 1.27812,-5.96339 1.12148,-9.02362 -0.061,-1.17594 -0.25647,-2.41267 -1.00459,-3.36529 -1.04696,-1.42025 -2.93146,-2.19245 -4.66826,-1.80796 -1.92615,0.34383 -3.52413,1.66601 -4.65499,3.2083 -0.92762,1.2643 -1.69523,2.69775 -1.89778,4.27274 -0.2602,1.75608 0.10261,3.59819 1.04117,5.10856 0.91315,1.67738 2.24367,3.11418 2.97261,4.89224 0.34778,1.37133 -0.19909,2.76512 -0.85128,3.955 -0.75548,1.33101 -1.58346,2.62038 -2.4099,3.90821 -0.99583,1.49456 -2.10986,2.96386 -3.58599,4.0149 -0.77459,0.42284 -1.93725,0.27186 -2.39638,-0.5401 -0.24533,-0.62404 -0.31032,-1.30513 -0.40849,-1.96513 -0.20841,-1.80609 -0.19465,-3.62779 -0.29889,-5.44085 -0.10233,-3.83056 -0.0118,-7.66778 -0.27034,-11.49288 -0.0572,-1.26047 -0.19185,-2.61454 -0.97898,-3.65268 -0.64834,-0.71928 -1.72888,-0.86742 -2.61729,-0.56815 -1.54408,0.48914 -2.6622,1.81244 -3.37952,3.21193 -1.02367,2.05178 -1.30046,4.35809 -1.7308,6.5826 -0.42712,2.29557 -0.97327,4.56747 -1.46774,6.84811 -0.0398,0.55428 0.0715,1.22266 -0.35547,1.65689 -1.14363,1.00575 -1.89868,2.35432 -2.92888,3.46381 -0.88736,1.00849 -1.89815,2.06711 -3.2614,2.36554 -0.62573,0.20957 -1.19979,-0.40877 -1.24332,-0.99912 -0.0157,-0.35656 0.0851,-0.70783 0.0613,-1.06768 0.21532,-4.99703 1.92829,-9.81131 1.97037,-14.82515 -0.008,-1.5365 -0.0352,-3.13914 -0.71644,-4.55181 -0.57556,-1.2709 -1.70892,-2.36899 -3.12772,-2.58164 -1.80684,-0.28485 -3.61969,0.42185 -5.0644,1.47269 -2.29043,1.64045 -3.9453,3.95837 -5.70382,6.11875 -0.30898,0.31697 -0.53551,0.84395 -1.04842,0.83703 -0.47301,0.0314 -0.96685,-0.32709 -0.96402,-0.82696 -0.28774,-1.87837 -0.10205,-3.86128 -0.88224,-5.63987 -0.24418,-0.61861 -0.64829,-1.19582 -1.25735,-1.4984 -1.36874,-0.74954 -3.3171,-0.19256 -3.98441,1.24589 -1.078,1.75389 -1.24945,3.84854 -1.801,5.78936 -0.30664,1.15516 -0.57878,2.31991 -0.9038,3.47053 -0.10366,0.35937 -0.22844,0.81174 -0.34785,1.20632 -1.21618,4.08612 -2.88125,8.12476 -5.582477,11.46666 -0.53043,0.5988 -1.08496,1.22276 -1.82188,1.56832 -0.46626,0.001 -1.00417,0.009 -1.33959,-0.37307 -0.47229,-0.36337 -0.39338,-1.03469 -0.42118,-1.56368 -0.039,-0.95328 -0.0576,-1.908 -0.008,-2.86175 0.0118,-0.17674 0.0192,-0.40543 0.0345,-0.59128 0.10403,-1.64469 0.33394,-3.27903 0.63036,-4.89939 0.0729,-0.36701 0.15769,-0.83329 0.24427,-1.23702 0.31688,-1.55548 0.70093,-3.09612 1.08841,-4.63523 0.0847,-0.32676 0.20348,-0.75073 0.31434,-1.11149 0.50817,-1.72617 1.14699,-3.42644 1.42812,-5.20978 0.13511,-1.49076 -1.22598,-2.89088 -2.71579,-2.82458 -1.43422,0.11553 -2.65332,0.98459 -3.75642,1.83797 -0.55786,0.4123 -1.10327,0.86154 -1.73352,1.15733 -0.58609,0.10816 -1.0447,-0.41577 -1.30583,-0.87399 -0.61962,-0.6839 -1.45644,-1.14692 -2.31134,-1.47577 -2.44512,-0.88236 -5.23089,-0.44056 -7.45593,0.83464 -2.59216,1.41324 -4.53255,3.75237 -6.04984,6.2389 -1.06063,1.73041 -1.9626,3.55114 -2.93012,5.33381 -2.08112,3.92668 -4.16492,7.93047 -7.1927,11.22879 -1.54427,1.70308 -3.36333,3.1913 -5.47012,4.14043 -2.22178,1.02576 -4.75804,1.45113 -7.1738,0.96439 -2.71364,-0.46325 -5.34917,-1.89781 -6.90253,-4.21706 -0.64224,-0.99363 -1.08775,-2.10237 -1.47435,-3.21642 -0.7415,-2.23934 -1.03473,-4.59991 -1.1358,-6.94855 -0.008,-0.20683 -0.0178,-0.53846 -0.0264,-0.79314 -0.0436,-3.17641 -0.0391,-6.39649 0.72359,-9.50052 0.22087,-0.89668 0.49929,-1.77997 0.85071,-2.63432 0.0946,-0.23619 0.24754,-0.57092 0.3737,-0.84136 2.01425,-4.6138 4.8662,-8.965971 8.81088,-12.154053 1.73324,-1.360969 3.62532,-2.622977 5.78496,-3.176176 1.65802,-0.429638 3.53438,-0.410934 5.03423,0.498557 1.22807,0.782588 1.9335,2.192249 2.10785,3.609985 0.40385,2.301946 -0.18414,4.620507 -0.78805,6.832127 -0.17841,0.71426 -0.42464,1.41524 -0.54838,2.14094 -0.10026,0.99087 0.54552,2.11163 1.58895,2.2485 0.67835,0.0671 1.32964,-0.22834 1.94039,-0.48618 2.13088,-1.02097 3.5975,-3.08519 4.32789,-5.28621 0.76547,-2.453701 1.00485,-5.174312 0.13267,-7.634015 -0.37149,-1.121322 -1.06696,-2.112216 -1.93883,-2.902192 -1.58665,-1.456333 -3.59605,-2.362253 -5.63121,-3.003101 -1.7626,-0.53687 -3.60481,-0.822224 -5.44894,-0.791685 z M 158.87617,106.01281 c 0.31067,0.0175 0.62647,0.11313 0.81871,0.37713 0.18141,0.23215 0.44619,0.44366 0.41964,0.77059 0.019,0.94095 -0.0163,1.88628 -0.21109,2.81052 -0.12524,0.58822 -0.26652,1.18697 -0.52252,1.7304 -0.16691,0.15682 -0.3477,0.48865 -0.60372,0.38015 -0.48127,-0.12954 -0.60527,-0.70734 -0.66872,-1.13682 -0.0782,-1.33041 -0.38576,-2.70488 0.0152,-4.01197 0.0972,-0.26847 0.18941,-0.56613 0.45416,-0.71486 0.0749,-0.0527 0.18733,-0.1678 0.29839,-0.20514 z m 22.9697,4.81429 c 0.76446,0.0351 1.27858,0.74128 1.53141,1.39838 0.44851,1.19139 0.52486,2.48071 0.61322,3.73899 0.0357,0.6943 0.0367,1.39013 0.01,2.08477 -0.0115,0.2113 -0.0273,0.54782 -0.0481,0.80535 -0.24075,3.11398 -1.09654,6.19151 -2.56839,8.94962 -1.01656,1.66991 -2.31531,3.19738 -3.91425,4.33355 -0.81218,0.37414 -1.73851,-0.1326 -2.23283,-0.79239 -0.48077,-0.63355 -0.56635,-1.46135 -0.66744,-2.22583 -0.0924,-1.16673 -0.10271,-2.34273 -0.0226,-3.51036 0.273,-3.49996 1.21341,-6.9338 2.6251,-10.14161 0.79598,-1.66798 1.87058,-3.32108 3.51534,-4.25476 0.36204,-0.17674 0.73821,-0.42649 1.15845,-0.38571 z m -96.142217,0.8808 c 1.35851,0.26507 2.31982,1.4812 2.68823,2.75802 0.33131,1.03281 0.19057,2.1297 0.11397,3.18936 -0.38006,3.78043 -1.91921,7.32638 -3.72339,10.62922 -0.69696,1.25188 -1.45156,2.51167 -2.52455,3.481 -0.418,0.33835 -0.89527,0.78022 -1.48055,0.64347 -0.88008,-0.20099 -1.5427,-0.93053 -1.96806,-1.69211 -0.65353,-1.29603 -0.50974,-2.79691 -0.45901,-4.19948 0.0478,-1.72941 0.35629,-3.44454 0.78464,-5.11779 0.0848,-0.32439 0.20423,-0.74377 0.31589,-1.10156 0.75526,-2.40058 1.84691,-4.71033 3.32756,-6.74973 0.68734,-0.82992 1.54236,-1.67583 2.65854,-1.82762 0.0886,-0.009 0.17766,-0.0151 0.26673,-0.0128 z" />
  </g>
</svg>
