<?xml version="1.0" encoding="UTF-8" standalone="no"?>
<!-- Created with Inkscape (http://www.inkscape.org/) -->

<svg
   version="1.1"
   id="svg8746"
   width="225"
   height="225"
   viewBox="0 0 225 225"
   sodipodi:docname="codecademy.svg"
   inkscape:version="1.2.2 (732a01da63, 2022-12-09)"
   xmlns:inkscape="http://www.inkscape.org/namespaces/inkscape"
   xmlns:sodipodi="http://sodipodi.sourceforge.net/DTD/sodipodi-0.dtd"
   xmlns="http://www.w3.org/2000/svg"
   xmlns:svg="http://www.w3.org/2000/svg">
  <defs
     id="defs8750" />
  <sodipodi:namedview
     id="namedview8748"
     pagecolor="#ffffff"
     bordercolor="#000000"
     borderopacity="0.25"
     inkscape:showpageshadow="2"
     inkscape:pageopacity="0.0"
     inkscape:pagecheckerboard="0"
     inkscape:deskcolor="#d1d1d1"
     showgrid="false"
     inkscape:zoom="2.5770114"
     inkscape:cx="42.879127"
     inkscape:cy="106.13069"
     inkscape:window-width="1920"
     inkscape:window-height="1017"
     inkscape:window-x="-8"
     inkscape:window-y="-8"
     inkscape:window-maximized="1"
     inkscape:current-layer="g8752" />
  <g
     inkscape:groupmode="layer"
     inkscape:label="Image"
     id="g8752">
    <rect
       style="fill:#ffffff"
       id="rect5723"
       width="268.52811"
       height="277.06512"
       x="-15.909903"
       y="-29.491526" />
    <path
       style="fill:#141e3b;fill-opacity:1;stroke-width:0.27439"
       d="M 0,0.13719512 H 225 V 224.8628 H 0 Z M 185.62498,153.38415 152.28657,153.24275 V 164.497 h 33.48697 z M 143.5,58 H 51 v 106 h 93.5 z"
       id="path10102"
       sodipodi:nodetypes="ccccccccccccccc" />
    <path
       style="fill:#141e3b;fill-opacity:1;stroke-width:0.27439"
       d="m 62,69 h 70 v 84 H 62 Z m 33.435484,74.34427 c 3.832617,-1.01548 8.936406,-4.50804 10.386106,-6.84233 l -6.749568,-6.92004 -1.997901,1.23517 c -3.357445,2.07569 -5.510536,2.93634 -7.367307,2.94492 -1.54136,0.007 -3.506005,-0.82778 -4.716671,-2.00442 -2.556028,-2.48417 -3.65353,-6.50245 -3.416935,-12.51042 0.235561,-5.98173 1.773929,-9.39046 4.996914,-11.07222 1.350356,-0.70461 3.910445,-0.73685 6.468695,-0.0815 2.178796,0.55818 5.158834,2.16387 5.618649,3.11535 l 7.805944,-6.33089 c 0,-0.29976 -2.2661,-2.37847 -4.22445,-3.8751 -1.81257,-1.385221 -4.86537,-2.799352 -7.495164,-3.47194 -2.542207,-0.650187 -6.602647,-0.702132 -9.087843,-0.116256 -3.608041,0.850579 -7.870631,3.314966 -10.506904,6.074496 -4.128389,4.3214 -5.422993,9.15716 -5.093571,19.02611 0.190145,5.69647 0.611049,7.85081 2.139712,10.95183 0.862201,1.74905 1.64477,2.81924 3.229027,4.41578 5.290665,5.33169 12.783255,7.37655 20.011267,5.46142 z"
       id="path10104"
       sodipodi:nodetypes="ccccccccscssscccssssssscc" />
  </g>
</svg>
