<?xml version="1.0" encoding="UTF-8" standalone="no"?>
<!-- Created with Inkscape (http://www.inkscape.org/) -->

<svg
   version="1.1"
   id="svg2"
   width="80"
   height="80"
   viewBox="0 0 80 80"
   sodipodi:docname="dict.svg"
   inkscape:version="1.2.2 (732a01da63, 2022-12-09)"
   xmlns:inkscape="http://www.inkscape.org/namespaces/inkscape"
   xmlns:sodipodi="http://sodipodi.sourceforge.net/DTD/sodipodi-0.dtd"
   xmlns="http://www.w3.org/2000/svg"
   xmlns:svg="http://www.w3.org/2000/svg">
  <defs
     id="defs6" />
  <sodipodi:namedview
     id="namedview4"
     pagecolor="#ffffff"
     bordercolor="#000000"
     borderopacity="0.25"
     inkscape:showpageshadow="2"
     inkscape:pageopacity="0.0"
     inkscape:pagecheckerboard="0"
     inkscape:deskcolor="#d1d1d1"
     showgrid="false"
     inkscape:zoom="7.2478445"
     inkscape:cx="50.428786"
     inkscape:cy="39.666966"
     inkscape:window-width="1920"
     inkscape:window-height="1017"
     inkscape:window-x="-8"
     inkscape:window-y="-8"
     inkscape:window-maximized="1"
     inkscape:current-layer="g8" />
  <g
     inkscape:groupmode="layer"
     inkscape:label="Image"
     id="g8"
     transform="translate(-7.0365748,0.55188822)">
    <path
       style="fill:#e5e0ca;fill-opacity:1"
       d="M -3.7252452,-8.9681835 -9.6580442,83.611065 96.718411,86.232534 95.200718,-10.209932 Z"
       id="path1294" />
    <path
       style="fill:#000000"
       d="m 34.998913,69.752928 c -1.627214,-1.960672 -0.531174,-2.743146 3.842428,-2.743146 2.195693,0 4.25803,-0.659265 5.0509,-1.614616 1.146851,-1.38187 1.020353,-1.87346 -0.877555,-3.410292 -2.859477,-2.315465 -2.806572,-2.574113 0.782433,-3.825247 4.269411,-1.488325 3.710247,-2.983461 -1.25,-3.342347 -3.900747,-0.282229 -4.417142,-0.65543 -6.28392,-4.541418 -1.118656,-2.328656 -2.581156,-4.781156 -3.25,-5.45 -2.216147,-2.216147 -1.363218,-3.81608 2.034364,-3.81608 2.390813,0 4.396345,-1.047457 7.583335,-3.960653 4.124205,-3.769895 4.734143,-6.039347 1.623134,-6.039347 -0.783779,0 -4.037701,1.265584 -7.230937,2.812409 -8.720288,4.224166 -8.875028,4.251487 -11.662152,2.059135 -4.125913,-3.245444 -3.332427,-4.871544 2.377159,-4.871544 2.717541,0 5.180948,-0.388272 5.474239,-0.862826 0.293291,-0.474555 2.682348,-1.453741 5.309017,-2.17597 6.886511,-1.893515 8.257203,-4.961204 2.216744,-4.961204 -1.617541,0 -2.940983,-0.28296 -2.940983,-0.628799 0,-0.34584 1.4625,-2.331623 3.25,-4.412852 1.7875,-2.081229 3.952622,-4.793356 4.811383,-6.026949 2.040497,-2.9311326 6.49631,-1.9962636 8.188668,1.718056 1.065572,2.338678 0.900212,2.818997 -1.678351,4.875071 -3.929911,3.133602 -2.955618,5.96086 1.677475,4.86779 4.138921,-0.976482 12.957482,-0.561595 14.200825,0.668107 2.00676,1.984741 -1.572236,3.439583 -8.467445,3.44197 -7.364753,0.0025 -10.631088,1.643982 -9.441294,4.744535 0.464367,1.210119 1.465234,1.463998 4.091425,1.037826 3.890321,-0.631312 7.320147,0.808818 9.23724,3.878572 1.12647,1.803765 0.77655,2.760761 -2.994466,8.189554 -4.659544,6.707928 -5.817549,7.829172 -7.466144,7.229135 -0.599876,-0.218337 -1.706982,-0.01608 -2.460236,0.449455 -1.117263,0.690506 -1.016628,1.236408 0.546295,2.963419 1.582316,1.748438 1.705962,2.453072 0.710237,4.047481 -2.103554,3.368325 -1.389654,3.957629 4.794388,3.957629 4.429639,0 6,0.360543 6,1.377555 0,2.569138 -2.479567,3.421297 -11.5,3.952235 -4.95,0.291355 -10.375597,0.824662 -12.056882,1.185129 -2.087831,0.447629 -3.432358,0.202972 -4.241324,-0.771773 z M 46.619479,48.711743 c 0.188535,-0.988922 -0.256841,-2.520553 -0.989726,-3.403624 -0.732884,-0.883072 -1.197914,-2.400112 -1.033399,-3.371201 0.226977,-1.339785 -0.195102,-1.636375 -1.750058,-1.229745 -1.127048,0.294729 -2.09686,1.045888 -2.15514,1.66924 -0.199531,2.13418 0.303657,7.132827 0.799336,7.940555 0.8914,1.45257 4.777924,0.2362 5.128987,-1.605225 z m 7.728667,-6.169842 c 1.980529,-4.740074 1.8385,-5.532119 -0.99201,-5.532119 -3.141451,0 -3.615592,0.876519 -2.890652,5.343796 0.744352,4.586904 2.018985,4.648728 3.882662,0.188323 z"
       id="path612" />
  </g>
</svg>
