<?xml version="1.0" encoding="UTF-8" standalone="no"?>
<!-- Created with Inkscape (http://www.inkscape.org/) -->

<svg
   version="1.1"
   id="svg10112"
   width="225"
   height="225"
   viewBox="0 0 225 225"
   sodipodi:docname="envato.svg"
   inkscape:version="1.2.2 (732a01da63, 2022-12-09)"
   xmlns:inkscape="http://www.inkscape.org/namespaces/inkscape"
   xmlns:sodipodi="http://sodipodi.sourceforge.net/DTD/sodipodi-0.dtd"
   xmlns="http://www.w3.org/2000/svg"
   xmlns:svg="http://www.w3.org/2000/svg">
  <defs
     id="defs10116" />
  <sodipodi:namedview
     id="namedview10114"
     pagecolor="#ffffff"
     bordercolor="#000000"
     borderopacity="0.25"
     inkscape:showpageshadow="2"
     inkscape:pageopacity="0.0"
     inkscape:pagecheckerboard="0"
     inkscape:deskcolor="#d1d1d1"
     showgrid="false"
     inkscape:zoom="3.6444444"
     inkscape:cx="86.021341"
     inkscape:cy="130.74695"
     inkscape:window-width="1920"
     inkscape:window-height="1017"
     inkscape:window-x="-8"
     inkscape:window-y="-8"
     inkscape:window-maximized="1"
     inkscape:current-layer="g10118" />
  <g
     inkscape:groupmode="layer"
     inkscape:label="Image"
     id="g10118">
    <path
       style="fill:#81b342;fill-opacity:1;stroke-width:0.27439"
       d="m 102.89634,177.36511 c -6.076447,-0.68318 -11.10635,-2.17095 -16.600608,-4.91022 -13.968223,-6.96415 -24.116351,-20.29147 -27.275198,-35.81995 -2.936852,-14.43718 -0.180378,-28.92974 7.772805,-40.866656 1.975174,-2.964534 4.757483,-6.179869 5.347594,-6.179869 0.497998,0 0.329903,2.663986 -0.389561,6.17378 -1.468837,7.165495 -1.51902,15.710445 -0.137328,23.383715 1.670258,9.27582 4.532828,14.35124 7.70166,13.65525 2.094071,-0.45994 3.101186,-3.21619 3.407488,-9.32555 0.377913,-7.53767 3.76039,-19.71111 7.624123,-27.439025 4.159029,-8.318535 9.605777,-15.631079 16.969905,-22.782989 5.95517,-5.783551 11.82059,-10.02526 18.20853,-13.167896 9.14985,-4.501398 16.77162,-5.418383 22.55253,-2.713323 5.25534,2.459129 9.91877,11.19024 13.50183,25.27879 2.87622,11.309286 3.43785,16.052064 3.45341,29.162853 0.0159,13.36124 -0.64651,19.97061 -2.70901,27.03163 -4.32108,14.79336 -12.40449,25.7811 -23.67109,32.17598 -8.23496,4.67413 -17.23965,6.7048 -29.30891,6.60951 -2.41464,-0.0191 -5.31631,-0.13877 -6.44817,-0.26603 z"
       id="path11602"
       sodipodi:nodetypes="sssscssssssssscssss" />
  </g>
</svg>
