<?xml version="1.0" encoding="UTF-8" standalone="no"?>
<!-- Created with Inkscape (http://www.inkscape.org/) -->

<svg
   version="1.1"
   id="svg5648"
   width="225"
   height="225"
   viewBox="0 0 225 225"
   sodipodi:docname="freecodecamp.svg"
   inkscape:version="1.2.2 (732a01da63, 2022-12-09)"
   xmlns:inkscape="http://www.inkscape.org/namespaces/inkscape"
   xmlns:sodipodi="http://sodipodi.sourceforge.net/DTD/sodipodi-0.dtd"
   xmlns="http://www.w3.org/2000/svg"
   xmlns:svg="http://www.w3.org/2000/svg">
  <defs
     id="defs5652" />
  <sodipodi:namedview
     id="namedview5650"
     pagecolor="#ffffff"
     bordercolor="#000000"
     borderopacity="0.25"
     inkscape:showpageshadow="2"
     inkscape:pageopacity="0.0"
     inkscape:pagecheckerboard="0"
     inkscape:deskcolor="#d1d1d1"
     showgrid="false"
     inkscape:zoom="1.8222222"
     inkscape:cx="85.884146"
     inkscape:cy="72.164634"
     inkscape:window-width="1920"
     inkscape:window-height="1017"
     inkscape:window-x="-8"
     inkscape:window-y="-8"
     inkscape:window-maximized="1"
     inkscape:current-layer="g5654" />
  <g
     inkscape:groupmode="layer"
     inkscape:label="Image"
     id="g5654">
    <rect
       style="fill:#e0e5e9;fill-opacity:1"
       id="rect7058"
       width="290.85367"
       height="280.42682"
       x="-53.231709"
       y="-17.560976" />
    <path
       style="fill:#0a0a23;fill-opacity:1;stroke-width:0.548781"
       d="M 0,112.5 V 0.27439024 H 112.5 225 V 112.5 224.72561 H 112.5 0 Z m 59.468674,56.75895 c 1.807557,-1.42182 1.910843,-3.85548 0.277349,-6.53506 -0.640477,-1.05064 -3.170805,-4.32394 -5.622948,-7.27401 -10.870334,-13.0776 -15.317047,-24.66107 -16.076061,-41.87734 -0.811879,-18.415408 4.270065,-31.763473 18.154232,-47.683288 1.946794,-2.23223 3.950677,-4.85348 4.453069,-5.825003 0.8671,-1.676782 0.859291,-1.839232 -0.153955,-3.201909 -1.450553,-1.950799 -4.911311,-2.238838 -7.520981,-0.625977 -5.379322,3.324605 -15.706281,16.673718 -20.019812,25.878556 -4.080616,8.707807 -5.900638,20.026661 -5.326998,33.128981 0.726171,16.58624 3.764179,26.14235 12.48349,39.26705 4.116126,6.19578 10.941553,13.25634 14.278542,14.77043 3.017727,1.36924 3.306473,1.36797 5.074073,-0.0224 z m 111.617716,-0.271 c 6.97922,-3.4779 18.59198,-19.67065 22.34879,-31.163 2.87303,-8.78882 3.71672,-14.83212 3.76538,-26.97129 0.0581,-14.495605 -0.94901,-19.722064 -5.73279,-29.750391 -4.74137,-9.939418 -14.42977,-22.164865 -19.6931,-24.850015 -2.77837,-1.417417 -5.57701,-1.427724 -6.84627,-0.02519 -1.72262,1.903467 -0.72693,4.29109 4.1566,9.967396 12.65818,14.713057 18.04915,27.790601 18.04915,43.78411 0,18.61875 -5.23374,32.69586 -17.53367,47.16004 -2.14144,2.51826 -4.25839,5.28419 -4.70432,6.14653 -1.26801,2.45204 -1.03315,4.66052 0.63517,5.97281 1.83736,1.44527 2.14064,1.43047 5.55506,-0.271 z m -39.91432,-10.6765 c 4.40664,-3.81754 8.83067,-9.78345 11.59015,-15.62959 2.28555,-4.84209 2.33524,-5.07156 2.559,-11.81951 0.1724,-5.19892 0.008,-7.74288 -0.67425,-10.40416 -1.45548,-5.68128 -7.78377,-16.45347 -9.16453,-15.60012 -0.28329,0.17509 -1.63337,2.0158 -3.00017,4.09048 -2.2384,3.39767 -4.16819,5.00577 -5.00406,4.1699 -0.16771,-0.16771 0.0978,-2.89104 0.59014,-6.05185 1.98385,-12.737622 0.44385,-19.905425 -6.55542,-30.511722 -4.35176,-6.594404 -13.47083,-15.518365 -14.93375,-14.614233 -0.27361,0.169101 -0.65421,2.476937 -0.84579,5.128524 -0.75627,10.467351 -4.75258,19.876132 -16.281128,38.331731 -8.650729,13.84861 -9.879091,17.15475 -9.879091,26.58955 0,7.12482 1.15009,10.97227 4.977411,16.65115 5.648247,8.38073 12.170086,14.1244 11.14903,9.81877 -0.196836,-0.83003 -0.712059,-2.37348 -1.144937,-3.42988 -1.24116,-3.02896 -1.469513,-8.57093 -0.534331,-12.96789 1.298074,-6.10314 3.754696,-11.32946 11.035876,-23.47813 3.70743,-6.18587 7.05239,-11.99933 7.43325,-12.9188 0.38086,-0.91947 0.88014,-1.67177 1.10952,-1.67177 1.135,0 1.75508,5.84218 1.71829,16.18903 -0.0215,6.03658 0.19479,11.84629 0.48059,12.91045 0.28579,1.06417 1.48474,2.87727 2.66434,4.02912 2.05206,2.00379 2.38199,2.12264 7.63591,2.75081 6.85137,0.81917 7.45196,1.25674 7.12565,5.19157 -0.18595,2.24237 -1.01021,4.44094 -3.35104,8.9383 -1.70744,3.28045 -3.10444,6.21182 -3.10444,6.51417 0,1.12913 1.3137,0.47108 4.40378,-2.2059 z"
       id="path7004" />
  </g>
</svg>
