<?xml version="1.0" encoding="UTF-8" standalone="no"?>
<!-- Created with Inkscape (http://www.inkscape.org/) -->

<svg
   version="1.1"
   id="svg3818"
   width="225"
   height="225"
   viewBox="0 0 225 225"
   sodipodi:docname="khan.svg"
   inkscape:version="1.2.2 (732a01da63, 2022-12-09)"
   xmlns:inkscape="http://www.inkscape.org/namespaces/inkscape"
   xmlns:sodipodi="http://sodipodi.sourceforge.net/DTD/sodipodi-0.dtd"
   xmlns="http://www.w3.org/2000/svg"
   xmlns:svg="http://www.w3.org/2000/svg">
  <defs
     id="defs3822" />
  <sodipodi:namedview
     id="namedview3820"
     pagecolor="#ffffff"
     bordercolor="#000000"
     borderopacity="0.25"
     inkscape:showpageshadow="2"
     inkscape:pageopacity="0.0"
     inkscape:pagecheckerboard="0"
     inkscape:deskcolor="#d1d1d1"
     showgrid="false"
     inkscape:zoom="3.6444444"
     inkscape:cx="107.0122"
     inkscape:cy="112.91159"
     inkscape:window-width="1920"
     inkscape:window-height="1017"
     inkscape:window-x="-8"
     inkscape:window-y="-8"
     inkscape:window-maximized="1"
     inkscape:current-layer="g3824" />
  <g
     inkscape:groupmode="layer"
     inkscape:label="Image"
     id="g3824">
    <path
       style="fill:#14bf96;fill-opacity:1;stroke-width:0.27439"
       d="m 37.5,158.5 v -91 l 75,-39.186151 75,39.186151 v 91 l -75,41.16471 z m 83.3689,10.077 c 13.94712,-1.40236 24.60926,-6.8785 36.5112,-18.75238 9.85143,-9.82819 15.24984,-18.74894 18.08059,-29.87776 2.0826,-8.18754 3.11249,-17.50961 2.35809,-21.34418 -0.58592,-2.978168 -2.28751,-5.464923 -4.51809,-6.602883 -3.18079,-1.622719 -15.51589,1.133616 -24.16959,5.40081 -6.87956,3.392353 -12.6339,7.599853 -18.8803,13.805063 -8.56706,8.51056 -13.26288,15.21913 -16.21117,23.15975 -1.69949,4.57721 -1.52263,4.44942 -2.4062,1.73853 -1.42175,-4.36212 -5.53291,-11.74258 -9.97184,-17.90174 -2.130541,-2.95618 -9.352215,-10.41333 -12.347566,-12.75018 -8.528913,-6.653885 -17.837588,-10.826982 -29.347251,-13.156424 -5.116711,-1.035573 -7.193178,-1.008161 -8.894025,0.117406 -1.404603,0.929522 -2.587159,2.527395 -3.319929,4.485897 -1.262656,3.374751 -0.324544,13.438701 2.183211,23.421211 1.499918,5.97066 3.318612,10.40324 6.304632,15.36586 9.550622,15.87265 26.691325,29.06787 41.688102,32.09225 2.296486,0.46313 6.183306,0.89648 10.866966,1.21158 2.04461,0.13756 8.94662,-0.0984 12.07317,-0.41281 z m -4.12167,-63.53037 c 4.85752,-1.21086 8.50415,-3.2242 12.04062,-6.647764 3.15386,-3.053171 5.06564,-6.093568 6.92019,-11.005573 0.70313,-1.862325 0.77659,-2.383927 0.77287,-5.487805 -0.005,-3.916224 -0.49704,-5.779079 -2.71944,-10.289634 -5.46595,-11.093592 -17.4621,-16.346788 -28.57903,-12.514945 -5.961142,2.054717 -11.475911,7.181166 -14.596587,13.568776 -3.549995,7.266367 -2.841947,14.210509 2.208032,21.65521 3.195898,4.711404 8.009105,8.460035 13.147185,10.239315 4.69829,1.62698 5.98425,1.6844 10.80616,0.48242 z"
       id="path5463"
       sodipodi:nodetypes="ccccccccssssssssssssssssscssscssssss" />
    <path
       style="fill:#e0e5e9;fill-opacity:1;stroke-width:0.27439"
       d="m 103.85671,168.46805 c -7.069231,-0.79203 -11.321715,-2.00139 -17.286588,-4.9161 -10.65144,-5.20478 -21.48631,-14.85567 -28.580426,-25.4573 -2.634033,-3.93637 -5.275207,-9.30768 -6.648769,-13.52148 -3.073517,-9.42891 -4.805389,-23.12291 -3.463775,-27.388255 0.587403,-1.867506 2.16781,-3.975956 3.579551,-4.775543 1.481847,-0.839293 4.160534,-0.823331 8.476284,0.05051 10.810329,2.188845 19.834016,6.114109 27.962613,12.163608 2.912586,2.16762 8.644063,7.72043 11.793358,11.42572 4.297582,5.05629 10.069832,14.96137 11.960802,20.52451 0.2641,0.77697 0.61245,1.45677 0.77411,1.51066 0.16167,0.0539 0.86821,-1.37826 1.5701,-3.18255 3.39841,-8.73604 7.26837,-14.31637 15.91888,-22.95441 5.18714,-5.17966 7.67309,-7.27438 12.30674,-10.36998 8.3935,-5.607431 21.08725,-9.991905 28.22062,-9.747516 2.48256,0.08505 2.71736,0.14424 3.70427,0.933743 1.42508,1.140041 2.74845,3.15747 3.28748,5.011657 0.64538,2.220031 0.38155,9.272816 -0.5467,14.614526 -1.35555,7.80065 -2.87975,12.77096 -5.67148,18.4943 -3.16929,6.49737 -7.24491,12.01517 -13.57658,18.38073 -11.79652,11.85966 -22.06113,17.32587 -35.80793,19.06881 -3.99953,0.5071 -13.97981,0.58171 -17.97256,0.13436 z"
       id="path5741" />
    <circle
       style="fill:#e0e5e9;fill-opacity:1"
       id="path5861"
       cx="113.04879"
       cy="81.219513"
       r="24.695122" />
  </g>
</svg>
