<?xml version="1.0" encoding="UTF-8" standalone="no"?>
<!-- Created with Inkscape (http://www.inkscape.org/) -->

<svg
   version="1.1"
   id="svg1099"
   width="291.71875"
   height="292.54297"
   viewBox="0 0 291.71875 292.54297"
   sodipodi:docname="messenger.svg"
   inkscape:version="1.2.2 (732a01da63, 2022-12-09)"
   xmlns:inkscape="http://www.inkscape.org/namespaces/inkscape"
   xmlns:sodipodi="http://sodipodi.sourceforge.net/DTD/sodipodi-0.dtd"
   xmlns:xlink="http://www.w3.org/1999/xlink"
   xmlns="http://www.w3.org/2000/svg"
   xmlns:svg="http://www.w3.org/2000/svg">
  <defs
     id="defs1103">
    <linearGradient
       inkscape:collect="always"
       id="linearGradient3967">
      <stop
         style="stop-color:#108ef6;stop-opacity:1;"
         offset="0"
         id="stop3963" />
      <stop
         style="stop-color:#903cf6;stop-opacity:1;"
         offset="0.5"
         id="stop6869" />
      <stop
         style="stop-color:#de46aa;stop-opacity:1;"
         offset="0.75"
         id="stop11149" />
      <stop
         style="stop-color:#ee7167;stop-opacity:0.98431373;"
         offset="1"
         id="stop3965" />
    </linearGradient>
    <radialGradient
       inkscape:collect="always"
       xlink:href="#linearGradient3967"
       id="radialGradient13083"
       cx="68.279312"
       cy="293.40762"
       fx="68.279312"
       fy="293.40762"
       r="145.85938"
       gradientTransform="matrix(2.2253995,-0.42200028,0.3768659,1.9873854,-194.24476,-260.49808)"
       gradientUnits="userSpaceOnUse" />
  </defs>
  <sodipodi:namedview
     id="namedview1101"
     pagecolor="#ffffff"
     bordercolor="#000000"
     borderopacity="0.25"
     inkscape:showpageshadow="2"
     inkscape:pageopacity="0.0"
     inkscape:pagecheckerboard="0"
     inkscape:deskcolor="#d1d1d1"
     showgrid="false"
     showguides="true"
     inkscape:zoom="1.3283333"
     inkscape:cx="-20.326223"
     inkscape:cy="164.49184"
     inkscape:window-width="1920"
     inkscape:window-height="1017"
     inkscape:window-x="-8"
     inkscape:window-y="-8"
     inkscape:window-maximized="1"
     inkscape:current-layer="g1105" />
  <g
     inkscape:groupmode="layer"
     inkscape:label="Image"
     id="g1105"
     transform="translate(-8.6567916,-7.5287553)">
    <path
       id="path1586"
       style="fill:url(#radialGradient13083);fill-opacity:1;stroke-width:7.559;stroke-linejoin:round;paint-order:markers stroke fill"
       d="M 154.51617,7.5287553 C 73.960764,7.5288042 8.6575261,70.640693 8.6567916,148.4936 c 2.8577274,33.80204 19.5526704,87.51909 50.1670934,106.93113 1.731157,23.19451 1.55434,13.40632 2.066673,38.75286 2.541985,6.18763 6.668194,5.83598 9.891233,5.89413 0,0 29.434939,-15.96298 37.939799,-15.88571 8.50486,0.0773 30.00058,5.17708 45.79458,5.27438 80.55619,-5e-5 145.85975,-63.11313 145.85937,-140.96679 C 300.37481,70.640696 235.07157,7.5288087 154.51617,7.5287553 Z"
       sodipodi:nodetypes="ccccczccc" />
    <path
       style="fill:#ffffff;fill-opacity:1;stroke-width:7.559;stroke-linejoin:round;paint-order:markers stroke fill"
       d="m 67.001255,189.33501 43.287325,-65.87202 c 10.028,-11.03341 16.45501,-14.49337 28.38481,-7.60569 l 35.98157,26.80267 c 3.71593,3.71593 8.62449,3.04426 11.66875,0 l 46.67504,-35.00627 c 4.97841,-4.97841 13.87721,1.74719 11.16446,6.44581 l -43.91227,68.08368 c -6.07024,6.07024 -17.38944,22.7058 -35.00627,6.02258 l -30.48934,-21.45546 c -3.72071,-3.72071 -9.11615,-3.68184 -12.79799,0 l -45.922208,33.87704 c -5.58052,3.22191 -15.36258,-4.96364 -9.033877,-11.29234 z"
       id="path2627"
       sodipodi:nodetypes="ccccccccccccc" />
  </g>
</svg>
