<?xml version="1.0" encoding="UTF-8" standalone="no"?>
<!-- Created with Inkscape (http://www.inkscape.org/) -->

<svg
   version="1.1"
   id="svg7517"
   width="257"
   height="257"
   viewBox="0 0 257 257"
   sodipodi:docname="notion.svg"
   inkscape:version="1.2.2 (732a01da63, 2022-12-09)"
   xmlns:inkscape="http://www.inkscape.org/namespaces/inkscape"
   xmlns:sodipodi="http://sodipodi.sourceforge.net/DTD/sodipodi-0.dtd"
   xmlns="http://www.w3.org/2000/svg"
   xmlns:svg="http://www.w3.org/2000/svg">
  <defs
     id="defs7521" />
  <sodipodi:namedview
     id="namedview7519"
     pagecolor="#ffffff"
     bordercolor="#000000"
     borderopacity="0.25"
     inkscape:showpageshadow="2"
     inkscape:pageopacity="0.0"
     inkscape:pagecheckerboard="0"
     inkscape:deskcolor="#d1d1d1"
     showgrid="false"
     inkscape:zoom="2.2561384"
     inkscape:cx="114.35469"
     inkscape:cy="133.63542"
     inkscape:window-width="1920"
     inkscape:window-height="1017"
     inkscape:window-x="-8"
     inkscape:window-y="-8"
     inkscape:window-maximized="1"
     inkscape:current-layer="g7523" />
  <g
     inkscape:groupmode="layer"
     inkscape:label="Image"
     id="g7523">
    <path
       style="fill:#000000"
       d="M 64.5,243.01144 C 57.253468,241.39395 56.580593,240.67248 32.313041,208.5 25.675243,199.7 19.401845,190.925 18.372158,189 16.596005,185.67948 16.486505,181.55139 16.236834,108.5 15.978562,32.931937 16.010978,31.439321 17.979989,28.237085 19.083466,26.442482 21.451891,24.315788 23.243155,23.511098 25.492819,22.500482 41.189402,20.944851 74,18.480775 c 26.125,-1.961988 58.3,-4.419072 71.5,-5.460187 24.07094,-1.898531 29.44398,-1.717475 34.87672,1.175243 1.92872,1.026968 8.74524,5.751812 43.38478,30.071998 6.19382,4.348641 11.70632,8.737786 12.25,9.753654 0.62886,1.175042 0.9885,32.450093 0.9885,85.962437 0,92.04567 0.23834,88.29011 -5.80148,91.41342 -4.79124,2.47765 -4.50023,2.45474 -96.19852,7.57192 -19.525,1.08958 -39.1,2.43313 -43.5,2.98565 -10.96161,1.3765 -23.38803,1.86275 -27,1.05653 z m 82,-21.02996 c 77.03432,-4.42269 73.96719,-3.98636 75.72574,-10.77282 0.44771,-1.72778 0.69257,-34.64421 0.54414,-73.14762 -0.26877,-69.719066 -0.27854,-70.014863 -2.38044,-72.116403 l -2.11055,-2.110196 -73.88945,4.135115 c -40.63919,2.274313 -75.502821,4.557421 -77.47473,5.073573 -2.339021,0.612244 -3.990151,1.82703 -4.75,3.494717 C 61.313867,78.405244 61,97.958438 61,149.09671 c 0,82.09938 -0.745261,76.64659 10.5,76.8245 2.75,0.0435 36.5,-1.72937 75,-3.93973 z M 86,203.29794 c 0,-2.68466 2.63575,-4.84505 7.760182,-6.36064 L 98.020364,195.67732 97.760182,151.08866 97.5,106.5 92,106 c -5.365794,-0.4878 -5.494785,-0.57164 -5.286277,-3.43595 0.434664,-5.97103 2.264428,-6.639783 21.913847,-8.009198 12.95591,-0.902929 18.1867,-0.944251 19.01485,-0.150213 0.94889,0.9098 12.52574,18.534031 41.44553,63.095361 l 3.89393,6 0.009,-31.125 0.009,-31.125 -3.125,-0.625 c -1.71875,-0.34375 -4.19375,-0.625 -5.5,-0.625 -3.30638,0 -3.2267,-4.184893 0.12996,-6.825242 2.10033,-1.652122 4.7252,-2.076795 16.25,-2.62906 7.55977,-0.362261 15.01424,-0.900958 16.56548,-1.197104 2.67932,-0.511507 2.8044,-0.372653 2.5,2.775284 -0.3363,3.47769 -2.55353,5.224148 -8.06111,6.349533 l -2.74068,0.560012 -0.25932,49.725577 -0.25933,49.72558 -4,1.91776 c -5.77433,2.76845 -14.06261,3.30251 -17.91666,1.15448 -4.36437,-2.43245 -5.23467,-3.66248 -29.16613,-41.22148 -11.83321,-18.57152 -21.72411,-33.97557 -21.97977,-34.23124 -0.25567,-0.25566 -0.34618,14.57413 -0.20115,32.9551 l 0.26371,33.41994 6.25,1.34712 c 4.91517,1.05942 6.25,1.74026 6.25,3.18785 0,3.57113 -4.36314,5.66231 -13.20543,6.32915 C 86.979081,205.44095 86,205.43941 86,203.29794 Z M 121.10234,53.998121 C 147.17105,52.347087 175.25,50.556356 183.5,50.018717 c 8.25,-0.537638 16.6875,-0.986793 18.75,-0.998121 2.39827,-0.01317 3.75,-0.48885 3.75,-1.319642 C 206,45.63834 179.28374,26.891168 174.10317,25.318499 169.96068,24.060963 162.99489,24.380956 104.5,28.515911 68.75,31.043049 38.452153,33.542256 37.17145,34.069705 35.890748,34.597153 35.023623,35.584744 35.244507,36.264351 35.782202,37.918716 53.585114,52.570312 58,54.991867 c 4.702651,2.579392 7.34088,2.537845 63.10234,-0.993746 z"
       id="path8733" />
  </g>
</svg>
