<?xml version="1.0" encoding="UTF-8" standalone="no"?>
<!-- Created with Inkscape (http://www.inkscape.org/) -->

<svg
   version="1.1"
   id="svg7517"
   width="257"
   height="257"
   viewBox="0 0 257 257"
   sodipodi:docname="notion.svg"
   inkscape:version="1.2.2 (732a01da63, 2022-12-09)"
   xmlns:inkscape="http://www.inkscape.org/namespaces/inkscape"
   xmlns:sodipodi="http://sodipodi.sourceforge.net/DTD/sodipodi-0.dtd"
   xmlns="http://www.w3.org/2000/svg"
   xmlns:svg="http://www.w3.org/2000/svg">
  <defs
     id="defs7521" />
  <sodipodi:namedview
     id="namedview7519"
     pagecolor="#ffffff"
     bordercolor="#000000"
     borderopacity="0.25"
     inkscape:showpageshadow="2"
     inkscape:pageopacity="0.0"
     inkscape:pagecheckerboard="0"
     inkscape:deskcolor="#d1d1d1"
     showgrid="false"
     inkscape:zoom="2.2561384"
     inkscape:cx="114.35469"
     inkscape:cy="134.07865"
     inkscape:window-width="1920"
     inkscape:window-height="1017"
     inkscape:window-x="-8"
     inkscape:window-y="-8"
     inkscape:window-maximized="1"
     inkscape:current-layer="g7523" />
  <g
     inkscape:groupmode="layer"
     inkscape:label="Image"
     id="g7523">
    <path
       style="fill:#000000"
       d="M 64.5,243.01144 C 57.253468,241.39395 56.580593,240.67248 32.313041,208.5 25.675243,199.7 19.401845,190.925 18.372158,189 16.596005,185.67948 16.486505,181.55139 16.236834,108.5 15.978562,32.931937 16.010978,31.439321 17.979989,28.237085 19.083466,26.442482 21.451891,24.315788 23.243155,23.511098 25.492819,22.500482 41.189402,20.944851 74,18.480775 c 26.125,-1.961988 58.3,-4.419072 71.5,-5.460187 24.07094,-1.898531 29.44398,-1.717475 34.87672,1.175243 1.92872,1.026968 8.74524,5.751812 43.38478,30.071998 6.19382,4.348641 11.70632,8.737786 12.25,9.753654 0.62886,1.175042 0.9885,32.450093 0.9885,85.962437 0,92.04567 0.23834,88.29011 -5.80148,91.41342 -4.79124,2.47765 -4.50023,2.45474 -96.19852,7.57192 -19.525,1.08958 -39.1,2.43313 -43.5,2.98565 -10.96161,1.3765 -23.38803,1.86275 -27,1.05653 z m 82,-21.02996 c 77.03432,-4.42269 73.96719,-3.98636 75.72574,-10.77282 0.44771,-1.72778 0.69257,-34.64421 0.54414,-73.14762 -0.26877,-69.719066 -0.27854,-70.014863 -2.38044,-72.116403 l -2.11055,-2.110196 -73.88945,4.135115 c -40.63919,2.274313 -75.502821,4.557421 -77.47473,5.073573 -2.339021,0.612244 -3.990151,1.82703 -4.75,3.494717 C 61.313867,78.405244 61,97.958438 61,149.09671 c 0,82.09938 -0.745261,76.64659 10.5,76.8245 2.75,0.0435 36.5,-1.72937 75,-3.93973 z M 86,203.29794 c 0,-2.68466 2.63575,-4.84505 7.760182,-6.36064 L 98.020364,195.67732 97.760182,151.08866 97.5,106.5 92,106 c -5.365794,-0.4878 -5.494785,-0.57164 -5.286277,-3.43595 0.434664,-5.97103 2.264428,-6.639783 21.913847,-8.009198 12.95591,-0.902929 18.1867,-0.944251 19.01485,-0.150213 0.94889,0.9098 12.52574,18.534031 41.44553,63.095361 l 3.89393,6 0.009,-31.125 0.009,-31.125 -3.125,-0.625 c -1.71875,-0.34375 -4.19375,-0.625 -5.5,-0.625 -3.30638,0 -3.2267,-4.184893 0.12996,-6.825242 2.10033,-1.652122 4.7252,-2.076795 16.25,-2.62906 7.55977,-0.362261 15.01424,-0.900958 16.56548,-1.197104 2.67932,-0.511507 2.8044,-0.372653 2.5,2.775284 -0.3363,3.47769 -2.55353,5.224148 -8.06111,6.349533 l -2.74068,0.560012 -0.25932,49.725577 -0.25933,49.72558 -4,1.91776 c -5.77433,2.76845 -14.06261,3.30251 -17.91666,1.15448 -4.36437,-2.43245 -5.23467,-3.66248 -29.16613,-41.22148 -11.83321,-18.57152 -21.72411,-33.97557 -21.97977,-34.23124 -0.25567,-0.25566 -0.34618,14.57413 -0.20115,32.9551 l 0.26371,33.41994 6.25,1.34712 c 4.91517,1.05942 6.25,1.74026 6.25,3.18785 0,3.57113 -4.36314,5.66231 -13.20543,6.32915 C 86.979081,205.44095 86,205.43941 86,203.29794 Z M 121.10234,53.998121 C 147.17105,52.347087 175.25,50.556356 183.5,50.018717 c 8.25,-0.537638 16.6875,-0.986793 18.75,-0.998121 2.39827,-0.01317 3.75,-0.48885 3.75,-1.319642 C 206,45.63834 179.28374,26.891168 174.10317,25.318499 169.96068,24.060963 162.99489,24.380956 104.5,28.515911 68.75,31.043049 38.452153,33.542256 37.17145,34.069705 35.890748,34.597153 35.023623,35.584744 35.244507,36.264351 35.782202,37.918716 53.585114,52.570312 58,54.991867 c 4.702651,2.579392 7.34088,2.537845 63.10234,-0.993746 z"
       id="path8733" />
    <path
       style="fill:#ffffff;stroke-width:0.443235"
       d="M 61.03302,55.914618 C 58.627499,55.229262 54.907915,52.793607 48.755874,47.875307 43.185978,43.422409 35.458818,36.622986 35.458818,36.174721 c 0,-0.196292 0.397813,-0.71691 0.884028,-1.156929 0.663579,-0.60053 2.293893,-0.943829 6.53772,-1.376661 12.598089,-1.284893 40.991505,-3.476843 79.452354,-6.133661 31.63724,-2.185452 38.88615,-2.567591 45.43161,-2.394998 5.22181,0.13769 5.99511,0.266385 8.24765,1.372603 5.50363,2.70282 25.77447,16.819013 28.73446,20.010077 0.78816,0.849695 0.94775,1.29668 0.5905,1.653929 -0.28542,0.285426 -3.69281,0.654659 -8.17182,0.88552 -4.22525,0.217781 -20.14825,1.192095 -35.38446,2.165142 -84.207901,5.377865 -96.415608,5.949171 -100.74784,4.714875 z"
       id="path803" />
    <path
       style="fill:#ffffff;stroke-width:0.443235"
       d="m 66.047029,225.43293 c -1.552863,-0.43224 -2.891482,-2.63805 -3.510566,-5.7848 -1.039357,-5.28295 -1.340728,-19.94128 -1.33098,-64.73742 0.01222,-56.146834 0.405029,-77.046548 1.478897,-78.685477 1.010122,-1.541641 3.06767,-2.727823 5.287222,-3.048099 5.596788,-0.807603 41.634338,-3.050681 114.613298,-7.133851 l 35.65242,-1.994752 1.08242,0.996758 c 2.2223,2.04644 2.37779,3.091978 2.8178,18.947785 0.62138,22.391356 0.24903,126.528546 -0.46008,128.672076 -1.48497,4.48881 -5.51283,5.05995 -56.79396,8.05313 -39.80171,2.32315 -93.381776,5.14532 -96.178059,5.06588 -0.855418,-0.0243 -2.051703,-0.18235 -2.658412,-0.35123 z m 40.994281,-21.32535 c 12.04873,-0.92324 16.23547,-1.62924 18.70207,-3.15368 1.75357,-1.08376 2.3516,-2.0733 2.3516,-3.89111 0,-1.76164 -0.78169,-2.15966 -7.09176,-3.61105 l -5.09721,-1.17241 -0.37716,-29.17572 c -0.20744,-16.04665 -0.20744,-30.68738 0,-32.53497 l 0.37716,-3.35924 2.2601,3.54544 c 17.11588,26.84987 35.68627,55.72952 38.82276,60.37503 6.82221,10.10452 9.1193,11.79038 16.09448,11.81197 4.76214,0.0147 7.69304,-0.63316 12.29978,-2.71893 l 3.43507,-1.55528 3.8e-4,-21.54603 c 2.1e-4,-11.85032 0.13255,-34.24932 0.29407,-49.77556 l 0.29369,-28.22953 1.8113,-0.301274 c 2.80501,-0.466557 6.22023,-1.871989 7.27357,-2.993218 1.01706,-1.082619 2.00988,-5.137395 1.55081,-6.333706 -0.21714,-0.565861 -0.66193,-0.662328 -2.09308,-0.453949 -0.99955,0.145536 -7.90076,0.664599 -15.33603,1.153473 -16.38122,1.077076 -17.95267,1.439902 -19.90279,4.595263 -1.95639,3.165502 -0.74733,5.609681 2.77495,5.609681 0.95371,0 3.00361,0.23393 4.55534,0.51985 l 2.82133,0.51985 v 30.58049 c 0,16.81926 -0.0826,30.49738 -0.18347,30.3958 -0.10091,-0.10157 -6.40883,-9.75856 -14.01762,-21.45997 -26.07621,-40.10213 -30.56561,-46.744411 -31.80371,-47.055155 -1.5687,-0.393719 -15.61549,0.151079 -24.68701,0.957472 -8.112296,0.721126 -12.317764,1.577783 -13.675806,2.785773 -1.859008,1.653604 -2.789421,6.47703 -1.461905,7.57877 0.330744,0.2745 2.716827,0.73007 5.302408,1.01239 l 4.701056,0.51331 0.230199,1.8121 c 0.12661,0.99666 0.283588,20.97665 0.348841,44.39997 l 0.118643,42.58786 -2.736511,0.78369 c -3.974193,1.13815 -6.947746,2.62423 -8.046898,4.02158 -0.913729,1.16162 -1.304942,3.71613 -0.666834,4.35424 0.543432,0.54343 9.124619,0.2982 20.758187,-0.59322 z"
       id="path805" />
  </g>
</svg>
