<?xml version="1.0" encoding="UTF-8" standalone="no"?>
<!-- Created with Inkscape (http://www.inkscape.org/) -->

<svg
   version="1.1"
   id="svg2"
   width="224"
   height="225"
   viewBox="0 0 224 225"
   sodipodi:docname="overleaf.svg"
   inkscape:version="1.2.2 (732a01da63, 2022-12-09)"
   xmlns:inkscape="http://www.inkscape.org/namespaces/inkscape"
   xmlns:sodipodi="http://sodipodi.sourceforge.net/DTD/sodipodi-0.dtd"
   xmlns="http://www.w3.org/2000/svg"
   xmlns:svg="http://www.w3.org/2000/svg">
  <defs
     id="defs6" />
  <sodipodi:namedview
     id="namedview4"
     pagecolor="#ffffff"
     bordercolor="#000000"
     borderopacity="0.25"
     inkscape:showpageshadow="2"
     inkscape:pageopacity="0.0"
     inkscape:pagecheckerboard="0"
     inkscape:deskcolor="#d1d1d1"
     showgrid="false"
     inkscape:zoom="2.5770114"
     inkscape:cx="97.593671"
     inkscape:cy="93.713207"
     inkscape:window-width="1920"
     inkscape:window-height="1017"
     inkscape:window-x="-8"
     inkscape:window-y="-8"
     inkscape:window-maximized="1"
     inkscape:current-layer="g8" />
  <g
     inkscape:groupmode="layer"
     inkscape:label="Image"
     id="g8">
    <rect
       style="fill:#000000;stroke-width:8.159;stroke-linejoin:bevel;paint-order:markers fill stroke"
       id="rect1211"
       width="404.34436"
       height="279.78146"
       x="-51.610172"
       y="-32.207851" />
    <path
       style="fill:#ffffff;stroke-width:3.16607;stroke-linejoin:bevel;paint-order:markers fill stroke"
       d="m 89.250673,191.68264 c -16.322942,-2.5693 -32.090888,-14.38974 -39.888494,-29.90243 -5.773401,-11.48569 -7.5476,-25.1171 -4.929602,-37.87475 1.593293,-7.76421 6.034253,-18.19023 10.959559,-25.72972 5.205928,-7.969053 12.861098,-16.194158 20.03286,-21.524328 5.242576,-3.89637 5.375878,-4.096785 6.224178,-9.357931 1.023957,-6.350591 2.980743,-10.845269 6.766803,-15.543137 9.216677,-11.436357 28.895033,-18.466927 53.803033,-19.222433 11.96334,-0.362871 22.68469,0.7301 33.67467,3.432913 l 4.95924,1.219645 -3.42769,3.528411 c -3.91884,4.033991 -7.82048,8.563645 -15.23919,17.692104 -10.82753,13.322902 -17.29832,18.296105 -26.56382,20.415955 -3.81102,0.871925 -13.304,0.979065 -17.65611,0.199278 -2.90736,-0.520925 -9.43042,-2.462744 -10.41734,-3.101089 -1.58501,-1.025199 15.20844,-11.471841 36.22242,-22.532752 13.6418,-7.180487 13.99958,-7.863048 2.03268,-3.877901 -19.47728,6.486214 -38.45556,15.473463 -50.067847,23.70985 -11.79034,8.362676 -20.277074,17.152494 -26.754542,27.710015 -6.828708,11.13 -8.512429,17.35198 -8.549491,31.59351 -0.581681,15.99807 11.381098,33.52123 25.833089,38.84326 4.500678,1.55037 10.852311,2.16634 16.402041,1.59063 5.22326,-0.54184 8.07496,-1.26648 11.6867,-2.96969 7.99354,-3.76956 13.75938,-9.61715 17.63279,-17.88278 5.52637,-13.98868 2.11276,-30.91954 -6.42638,-40.03703 -4.36314,-4.58787 -7.41101,-6.91537 -11.53657,-8.80986 -8.79946,-2.82063 -17.044607,-4.322392 -25.161033,-1.83883 -4.027806,1.2501 -9.11702,4.00424 -12.842012,6.94973 -1.726475,1.36519 -3.246501,2.37471 -3.377837,2.24337 -0.631567,-0.63157 5.153141,-8.95404 10.803889,-15.543585 3.615354,-4.216 10.072613,-10.475449 12.658039,-12.27028 1.738696,-1.207022 2.136862,-1.312792 5.403334,-1.43536 6.31008,-0.236774 13.83117,1.70567 21.69669,5.60353 5.76487,2.856848 10.62732,6.419184 15.22109,11.151293 10.34722,10.658822 15.73398,23.962612 15.73786,38.868132 0.003,11.07022 -3.06195,21.18474 -9.23028,30.46164 -8.37649,12.59788 -23.01097,22.15321 -37.1063,24.22792 -4.97371,0.73208 -13.967088,0.73823 -18.576427,0.0127 z"
       id="path1157"
       sodipodi:nodetypes="ssssssssscsssssssssccssccccssssssscsss" />
  </g>
</svg>
