<?xml version="1.0" encoding="UTF-8" standalone="no"?>
<!-- Created with Inkscape (http://www.inkscape.org/) -->

<svg
   version="1.1"
   id="svg8740"
   width="225"
   height="225"
   viewBox="0 0 225 225"
   sodipodi:docname="quizlet.svg"
   inkscape:version="1.2.2 (732a01da63, 2022-12-09)"
   xmlns:inkscape="http://www.inkscape.org/namespaces/inkscape"
   xmlns:sodipodi="http://sodipodi.sourceforge.net/DTD/sodipodi-0.dtd"
   xmlns="http://www.w3.org/2000/svg"
   xmlns:svg="http://www.w3.org/2000/svg">
  <defs
     id="defs8744" />
  <sodipodi:namedview
     id="namedview8742"
     pagecolor="#ffffff"
     bordercolor="#000000"
     borderopacity="0.25"
     inkscape:showpageshadow="2"
     inkscape:pageopacity="0.0"
     inkscape:pagecheckerboard="0"
     inkscape:deskcolor="#d1d1d1"
     showgrid="false"
     inkscape:zoom="14.577778"
     inkscape:cx="187.51143"
     inkscape:cy="170.63643"
     inkscape:window-width="1920"
     inkscape:window-height="1017"
     inkscape:window-x="-8"
     inkscape:window-y="-8"
     inkscape:window-maximized="1"
     inkscape:current-layer="g8746" />
  <g
     inkscape:groupmode="layer"
     inkscape:label="Image"
     id="g8746">
    <rect
       style="fill:#4255ff;fill-opacity:1"
       id="rect10357"
       width="251.06602"
       height="257.66281"
       x="-12.805532"
       y="-12.805532" />
    <path
       style="fill:#e0e5e9;fill-opacity:1;stroke-width:0.388046"
       d="m 173.38455,187.20213 c -5.52294,-0.81018 -10.94117,-2.75008 -19.09744,-6.83751 l -5.39399,-2.70313 -6.07559,2.44458 c -16.80863,6.76311 -28.87861,8.16434 -44.253743,5.13749 -19.984351,-3.93424 -38.843175,-17.02454 -49.70707,-34.50271 -4.463367,-7.1808 -8.484492,-16.74827 -9.847008,-23.42901 -1.438934,-7.05544 -1.628847,-22.49383 -0.364195,-29.606156 0.735584,-4.136885 3.192809,-11.23094 5.751254,-16.603986 10.533575,-22.121785 29.65592,-37.430851 53.002879,-42.433318 17.698043,-3.792094 36.786043,-0.632069 52.678033,8.720867 24.36098,14.337196 39.27972,41.879315 37.33606,68.927663 -0.77036,10.72034 -3.10377,18.61113 -9.31692,31.50648 -1.53656,3.18912 -2.87988,6.44065 -2.98517,7.22562 -0.18794,1.40125 -0.15353,1.44494 1.89017,2.40002 1.14487,0.53503 2.86739,1.26087 3.8278,1.61296 0.96042,0.3521 3.17401,0.548 3.57763,0.85455 l -0.16951,27.21773 -1.9951,0.23971 c -2.5563,0.30714 -6.05562,0.23925 -8.85809,-0.17185 z m -51.34009,-30.25591 c 11.38437,-2.19696 19.89,-7.52228 27.86091,-17.44354 6.55331,-8.15679 10.06536,-22.7064 8.38946,-34.75563 -2.55878,-18.396962 -17.10044,-34.218623 -34.70507,-37.759925 -10.59308,-2.130877 -22.65575,-1.049853 -30.926719,2.771569 -6.064782,2.802101 -13.17839,8.618247 -17.417958,14.241063 -3.914975,5.192321 -7.032045,12.525071 -8.335409,19.608633 -0.965502,5.24734 -0.607781,14.98958 0.733799,19.98439 2.771042,10.31682 8.383281,18.76255 16.75662,25.21664 10.215744,7.87421 23.795247,10.80941 37.644367,8.1368 z"
       id="path10303"
       sodipodi:nodetypes="sscsssssssssssssccssssssssssss" />
  </g>
</svg>
