<?xml version="1.0" encoding="UTF-8" standalone="no"?>
<!-- Created with Inkscape (http://www.inkscape.org/) -->

<svg
   version="1.1"
   id="svg10589"
   width="225"
   height="225"
   viewBox="0 0 225 225"
   sodipodi:docname="spotify.svg"
   inkscape:version="1.2.2 (732a01da63, 2022-12-09)"
   xmlns:inkscape="http://www.inkscape.org/namespaces/inkscape"
   xmlns:sodipodi="http://sodipodi.sourceforge.net/DTD/sodipodi-0.dtd"
   xmlns="http://www.w3.org/2000/svg"
   xmlns:svg="http://www.w3.org/2000/svg">
  <defs
     id="defs10593" />
  <sodipodi:namedview
     id="namedview10591"
     pagecolor="#ffffff"
     bordercolor="#000000"
     borderopacity="0.25"
     inkscape:showpageshadow="2"
     inkscape:pageopacity="0.0"
     inkscape:pagecheckerboard="0"
     inkscape:deskcolor="#d1d1d1"
     showgrid="false"
     showguides="true"
     inkscape:zoom="2.5770114"
     inkscape:cx="106.32471"
     inkscape:cy="100.31"
     inkscape:window-width="1920"
     inkscape:window-height="1017"
     inkscape:window-x="-8"
     inkscape:window-y="-8"
     inkscape:window-maximized="1"
     inkscape:current-layer="g10595">
    <sodipodi:guide
       position="122.23462,205.59768"
       orientation="0,-1"
       id="guide11083"
       inkscape:locked="false" />
    <sodipodi:guide
       position="20.566459,131.48082"
       orientation="1,0"
       id="guide11085"
       inkscape:locked="false" />
  </sodipodi:namedview>
  <g
     inkscape:groupmode="layer"
     inkscape:label="Image"
     id="g10595">
    <circle
       style="fill:#4255ff"
       id="path11139"
       cx="112.72748"
       cy="111.17529"
       r="92.549065" />
    <path
       style="fill:#1dda63;fill-opacity:1;stroke-width:0.388046"
       d="m 103.98375,203.14974 c -39.189624,-4.15828 -71.017456,-31.46409 -80.697224,-69.23196 -2.182031,-8.5137 -2.702365,-12.89271 -2.702365,-22.74249 0,-9.84977 0.520334,-14.22878 2.702365,-22.742479 6.710637,-26.183117 24.474268,-48.123454 48.502059,-59.90619 12.495692,-6.127631 24.009587,-9.058179 37.640505,-9.580361 36.08503,-1.38237 70.06002,18.892689 85.94706,51.290139 4.47495,9.12547 7.24356,17.871039 8.78343,27.745318 0.97338,6.241703 0.97338,20.145453 0,26.387153 -6.35986,40.78199 -37.37725,71.85901 -78.0445,78.19453 -4.56781,0.71162 -17.67736,1.05893 -22.13133,0.58634 z m 49.38371,-47.21232 c 2.49785,-1.86491 3.41309,-5.03467 2.46759,-8.54599 -0.51839,-1.92517 -2.20688,-3.16656 -8.7739,-6.45063 -17.38282,-8.69292 -33.01864,-11.78113 -54.452517,-10.75486 -12.302185,0.58904 -21.106306,1.71103 -27.605769,3.51806 -5.394326,1.49978 -6.989927,3.04054 -6.989927,6.7497 0,2.18795 0.675554,3.5842 2.515981,5.20012 1.285726,1.12888 1.604292,1.22173 4.191324,1.22159 1.539908,-9e-5 7.601907,-0.71034 13.471108,-1.57834 5.869202,-0.868 12.766727,-1.67721 15.327833,-1.79825 8.087647,-0.38223 19.771457,0.95493 29.491527,3.37518 7.28401,1.81368 12.33062,3.68407 18.04416,6.68755 2.45439,1.29023 5.0737,2.5809 5.82069,2.86817 1.8677,0.71825 5.20997,0.46479 6.4919,-0.4923 z m 9.39541,-24.18919 c 2.76975,-0.79435 5.45525,-4.47017 5.45525,-7.46696 0,-3.68975 -3.04948,-6.60196 -11.25335,-10.74681 -20.41912,-10.31638 -41.57102,-14.546217 -66.212039,-13.24071 -14.932868,0.79115 -29.348066,3.24897 -32.83423,5.5983 -1.696427,1.14322 -3.448261,4.10744 -3.688827,6.24173 -0.356776,3.16532 1.766063,7.09957 4.431763,8.21337 1.936669,0.80919 5.053854,0.63958 11.104937,-0.60426 12.740076,-2.61879 15.821618,-2.94246 27.827297,-2.92292 10.124799,0.0165 11.596089,0.10628 17.411579,1.0626 12.0575,1.98279 20.92493,4.66437 31.67629,9.57918 9.78983,4.47527 12.70952,5.25351 16.08133,4.28648 z m 11.62947,-28.16554 c 6.73741,-2.00079 8.72893,-11.28848 3.42002,-15.949705 -4.22357,-3.708299 -18.6853,-9.883639 -31.14932,-13.301148 C 130.17615,69.811298 118.4215,68.294382 99.921949,68.299989 86.456762,68.304064 80.646547,68.750278 69.326593,70.649622 55.658191,72.943 51.15213,74.856627 49.08997,79.243686 c -0.693165,1.474642 -0.828643,2.344735 -0.715123,4.592773 0.176566,3.496512 1.582618,6.003183 4.314845,7.692392 2.8264,1.747427 4.341819,1.716892 14.248313,-0.287085 13.165999,-2.663345 16.205923,-3.000596 29.10348,-3.228763 15.349665,-0.271551 25.175285,0.653571 38.416595,3.617074 9.69815,2.170518 16.69932,4.540426 25.41704,8.603713 2.77453,1.29319 6.00502,2.64239 7.17886,2.99821 1.17384,0.35582 2.30887,0.70326 2.5223,0.77207 0.96112,0.3099 2.9352,0.13718 4.81606,-0.42138 z"
       id="path11349" />
    <path
       style="fill:#1b1413;fill-opacity:1;stroke-width:0.388046"
       d="m 141.32732,153.47485 c -7.23805,-3.59321 -14.48614,-6.06851 -22.59016,-7.71478 -14.21021,-2.8867 -23.738219,-3.04126 -40.739833,-0.66086 -11.970265,1.67595 -15.336376,1.82318 -16.794457,0.73457 -3.285729,-2.45316 -3.943315,-7.14177 -1.329229,-9.47745 3.103139,-2.77266 13.341623,-4.76976 29.765078,-5.80593 22.609971,-1.42648 38.944641,1.57985 57.075121,10.50444 8.30352,4.08734 10.02184,6.10732 9.01785,10.60093 -0.75149,3.36342 -2.72435,4.93476 -6.1398,4.89022 -1.85608,-0.0242 -2.93328,-0.4245 -8.26457,-3.07114 z"
       id="path12041" />
    <path
       style="fill:#1b1413;fill-opacity:1;stroke-width:0.388046"
       d="m 155.21856,130.79116 c -1.49398,-0.51191 -4.72446,-1.83198 -7.17886,-2.93349 -9.54017,-4.28153 -15.69243,-6.43854 -23.76323,-8.3315 -8.87936,-2.08261 -13.1814,-2.60411 -23.19724,-2.81202 -11.810861,-0.24517 -17.844756,0.23245 -28.245819,2.2358 -9.137733,1.76002 -12.779063,1.95216 -14.707932,0.77606 -2.050846,-1.25046 -3.35828,-3.61502 -3.519231,-6.36468 -0.125061,-2.13652 -0.0075,-2.59844 1.148629,-4.51431 1.023302,-1.69572 1.726483,-2.35358 3.4222,-3.20166 6.363974,-3.18278 27.203722,-5.659378 43.849243,-5.21104 20.12928,0.54218 36.57961,4.60722 53.70944,13.27214 8.03627,4.06505 11.15899,6.97427 11.15899,10.39607 0,2.69714 -1.9259,5.79356 -4.41093,7.0918 -1.59059,0.83096 -5.1736,0.65619 -8.26526,-0.40317 z"
       id="path12043" />
    <path
       style="fill:#1b1413;fill-opacity:1;stroke-width:0.388046"
       d="m 166.27788,102.68762 c -1.60069,-0.6147 -5.2696,-2.16985 -8.15312,-3.455903 -8.98236,-4.006119 -16.54546,-6.364213 -27.55995,-8.59289 -11.25054,-2.276437 -14.65107,-2.552471 -31.418954,-2.550398 -16.878595,0.0021 -17.599728,0.06668 -31.237735,2.79793 -4.468201,0.894836 -8.173246,1.41142 -10.28323,1.433761 -3.139525,0.03324 -3.389047,-0.02801 -5.180499,-1.271621 -2.539293,-1.762763 -3.735558,-4.297106 -3.740777,-7.925016 -0.01049,-7.293548 4.867713,-9.858891 24.443132,-12.854107 9.797709,-1.499139 17.313261,-1.907307 30.461643,-1.654368 16.65397,0.320378 25.77657,1.469654 39.23878,4.943346 16.63961,4.293569 32.73234,11.257749 35.94343,15.554638 3.19872,4.280339 1.9962,10.481018 -2.58148,13.311178 -2.74117,1.69474 -5.98034,1.78067 -9.93124,0.26345 z"
       id="path12045" />
  </g>
</svg>
