<?xml version="1.0" encoding="UTF-8" standalone="no"?>
<!-- Created with Inkscape (http://www.inkscape.org/) -->

<svg
   version="1.1"
   id="svg4271"
   width="225"
   height="225"
   viewBox="0 0 225 225"
   sodipodi:docname="ted.svg"
   inkscape:version="1.2.2 (732a01da63, 2022-12-09)"
   xmlns:inkscape="http://www.inkscape.org/namespaces/inkscape"
   xmlns:sodipodi="http://sodipodi.sourceforge.net/DTD/sodipodi-0.dtd"
   xmlns="http://www.w3.org/2000/svg"
   xmlns:svg="http://www.w3.org/2000/svg">
  <defs
     id="defs4275" />
  <sodipodi:namedview
     id="namedview4273"
     pagecolor="#ffffff"
     bordercolor="#000000"
     borderopacity="0.25"
     inkscape:showpageshadow="2"
     inkscape:pageopacity="0.0"
     inkscape:pagecheckerboard="0"
     inkscape:deskcolor="#d1d1d1"
     showgrid="false"
     inkscape:zoom="2.5770114"
     inkscape:cx="156.18868"
     inkscape:cy="108.45897"
     inkscape:window-width="1920"
     inkscape:window-height="1017"
     inkscape:window-x="-8"
     inkscape:window-y="-8"
     inkscape:window-maximized="1"
     inkscape:current-layer="g4277" />
  <g
     inkscape:groupmode="layer"
     inkscape:label="Image"
     id="g4277">
    <rect
       style="fill:#ffffff"
       id="rect4496"
       width="370.58432"
       height="295.69135"
       x="-42.685104"
       y="-24.058876" />
    <path
       style="fill:#eb0227;stroke:none"
       d="M 0,0 V 225 H 225 V 0 H 0 M 79,80 V 97 H 61 v 48 H 40 V 97 H 22 V 80 h 57 m 58,0 v 17 h -34 v 7 h 34 v 17 h -34 v 7 h 34 v 17 H 82 V 80 h 55 m 3,65 V 80 h 38.672 c 0,0 4.78897,0.239293 9.328,2.8248 19.647,10.3089 20.403,45.7182 1.985,57.6162 -6.27746,4.12898 -11.37517,4.559 -11.313,4.559 H 140 m 21,-48 v 31 c 5.232,0 11.385,0.69 15.811,-2.703 7.599,-5.826 6.738,-20.243 -0.855,-25.5941 C 171.562,96.6062 166.101,97.0006 161,97 Z"
       id="path5641"
       sodipodi:nodetypes="ccccccccccccccccccccccccccccccccccccccc" />
  </g>
</svg>
