<?xml version="1.0" encoding="UTF-8" standalone="no"?>
<!-- Created with Inkscape (http://www.inkscape.org/) -->

<svg
   version="1.1"
   id="svg9079"
   width="225"
   height="225"
   viewBox="0 0 225 225"
   sodipodi:docname="twitter.svg"
   inkscape:version="1.2.2 (732a01da63, 2022-12-09)"
   xmlns:inkscape="http://www.inkscape.org/namespaces/inkscape"
   xmlns:sodipodi="http://sodipodi.sourceforge.net/DTD/sodipodi-0.dtd"
   xmlns="http://www.w3.org/2000/svg"
   xmlns:svg="http://www.w3.org/2000/svg">
  <defs
     id="defs9083" />
  <sodipodi:namedview
     id="namedview9081"
     pagecolor="#ffffff"
     bordercolor="#000000"
     borderopacity="0.25"
     inkscape:showpageshadow="2"
     inkscape:pageopacity="0.0"
     inkscape:pagecheckerboard="0"
     inkscape:deskcolor="#d1d1d1"
     showgrid="false"
     inkscape:zoom="2.5770114"
     inkscape:cx="128.44336"
     inkscape:cy="108.45897"
     inkscape:window-width="1920"
     inkscape:window-height="1017"
     inkscape:window-x="-8"
     inkscape:window-y="-8"
     inkscape:window-maximized="1"
     inkscape:current-layer="g9085" />
  <g
     inkscape:groupmode="layer"
     inkscape:label="Image"
     id="g9085">
    <path
       style="fill:#000000"
       d="M 0,112.5 V 0 H 112.5 225 V 112.5 225 H 112.5 0 Z m 104.46399,57.97569 c 36.0361,-7.44346 64.14979,-40.51966 66.2768,-77.97569 l 0.56787,-10 4.29046,-3.786393 c 2.35976,-2.082515 5.6659,-5.52301 7.34697,-7.645543 l 3.05651,-3.85915 -6.0904,1.895543 C 176.56249,70.147006 172.92738,71 171.83418,71 c -1.67654,0 -1.47977,-0.427338 1.2572,-2.730344 C 176.11771,65.72317 182,57.533748 182,55.866935 c 0,-0.407828 -2.8125,0.517541 -6.25,2.056374 -9.82708,4.399197 -11.4236,4.563028 -15.34194,1.574361 C 154.1795,54.74692 149.0706,53.044852 141,53.031731 131.36097,53.01606 125.22206,55.734673 118.82175,62.853361 113.27284,69.025081 111,75.109335 111,83.791683 v 6.435405 l -4.75,-0.671739 C 85.901111,86.677639 68.865405,78.446912 55.178248,64.880256 48.325964,58.088299 47.978714,58.092834 46.009164,65 c -2.729592,9.572618 -0.164241,20.386728 6.628426,27.94181 2.539798,2.824866 4.409543,5.344391 4.154989,5.598944 -0.254554,0.254554 -2.674519,-0.208109 -5.377702,-1.02814 -6.50837,-1.974363 -6.41634,-1.999326 -6.405108,1.737386 0.02464,8.19654 9.433203,20.40441 18.097177,23.48158 2.613565,0.92826 4.53213,2.04339 4.263478,2.47808 -0.268652,0.43469 -2.9369,0.79034 -5.929441,0.79034 -6.101109,0 -6.466017,0.60539 -3.377308,5.60303 C 62.67692,139.06742 73.566479,146 80.678139,146 c 3.614928,0 2.784332,1.29714 -3.123191,4.87747 -7.258249,4.39896 -18.85062,7.97167 -28.815035,8.88064 l -8.132825,0.74189 6.446456,3.11108 c 18.305949,8.83449 37.032952,11.07369 57.410446,6.86461 z"
       id="path10295" />
    <path
       style="fill:#00c7ff;fill-opacity:1;stroke-width:0.27439"
       d="m 80.670732,172.29248 c -11.356209,-0.97637 -18.805481,-2.67537 -28.125,-6.41462 -3.513337,-1.40965 -10.874997,-5.02404 -10.640908,-5.22442 0.117743,-0.10078 2.498377,-0.38954 5.290298,-0.64168 12.881246,-1.1633 24.655714,-4.97186 32.998204,-10.67357 1.588881,-1.08594 2.460424,-1.86887 2.571061,-2.30968 0.09206,-0.36678 0.09487,-0.73937 0.0063,-0.82799 -0.08861,-0.0886 -1.284385,-0.26476 -2.657275,-0.39144 -4.355388,-0.40189 -9.372056,-2.56423 -13.94713,-6.01165 -2.963709,-2.23323 -6.779112,-6.32823 -8.324209,-8.93423 -2.497977,-4.21316 -2.269314,-4.4803 4.11442,-4.80688 4.624027,-0.23656 5.543551,-0.39128 5.543551,-0.93277 0,-0.55255 -0.583248,-0.90528 -3.885945,-2.35007 -4.06424,-1.77793 -6.375634,-3.36474 -9.559177,-6.56251 -3.988267,-4.0061 -6.875948,-8.59396 -8.220191,-13.05998 -0.441501,-1.46681 -0.564424,-2.50496 -0.503586,-4.253049 l 0.08048,-2.312575 0.839752,-0.0821 c 0.461863,-0.04516 2.608866,0.417877 4.771118,1.028963 2.162251,0.611086 4.41612,1.111067 5.008598,1.111067 h 1.077231 L 56.528715,97.614332 C 56.20993,97.048402 54.719524,95.113153 53.216701,93.313776 48.136758,87.2314 46.001903,82.457904 45.236491,75.470174 c -0.220147,-2.009801 -0.215903,-3.470851 0.01607,-5.532358 0.498057,-4.426192 2.147126,-9.48898 3.225582,-9.902823 0.771473,-0.296041 2.225539,0.764636 6.068643,4.426806 6.230659,5.937319 9.47389,8.547005 15.062462,12.1201 10.392895,6.644778 22.243105,10.90827 36.166542,13.012075 1.96282,0.29658 3.97006,0.607464 4.46053,0.690857 l 0.89177,0.151625 v -4.478474 c 0,-7.425635 0.69765,-11.232697 2.88766,-15.757933 1.54598,-3.194473 3.79113,-6.172196 6.94774,-9.214717 5.36936,-5.175309 10.20231,-7.27465 17.87801,-7.765874 7.74092,-0.495397 14.32266,1.30311 20.16769,5.510954 3.24819,2.338383 4.36892,2.870201 6.04855,2.870201 1.82635,0 4.13546,-0.715638 9.00956,-2.792245 4.00614,-1.706812 7.60208,-3.038413 7.76505,-2.87545 0.0513,0.05133 -0.2913,0.839062 -0.76137,1.750525 -1.3849,2.685261 -5.05832,7.432242 -7.85789,10.154377 -2.63142,2.558629 -3.03131,3.369414 -1.65916,3.363966 1.0359,-0.0041 6.15845,-1.253202 9.95048,-2.426338 1.95927,-0.606134 3.60843,-1.055934 3.66481,-0.999554 0.0564,0.05638 -0.82578,1.252125 -1.96036,2.657211 -1.9985,2.474973 -7.17808,7.72066 -10.41888,10.551848 l -1.58505,1.384716 -0.41159,6.696266 c -0.64928,10.563379 -1.74257,16.844755 -4.25347,24.437795 -7.23525,21.87965 -23.30242,40.47221 -43.47581,50.30918 -8.80914,4.29552 -16.2762,6.49059 -26.579745,7.81355 -3.94971,0.50714 -13.153105,0.89476 -15.81354,0.66602 z"
       id="path11056" />
  </g>
</svg>
