<?xml version="1.0" encoding="UTF-8" standalone="no"?>
<!-- Created with Inkscape (http://www.inkscape.org/) -->

<svg
   version="1.1"
   id="svg2850"
   width="225"
   height="225"
   viewBox="0 0 225 225"
   sodipodi:docname="twitch.svg"
   inkscape:version="1.2.2 (732a01da63, 2022-12-09)"
   xmlns:inkscape="http://www.inkscape.org/namespaces/inkscape"
   xmlns:sodipodi="http://sodipodi.sourceforge.net/DTD/sodipodi-0.dtd"
   xmlns="http://www.w3.org/2000/svg"
   xmlns:svg="http://www.w3.org/2000/svg">
  <defs
     id="defs2854" />
  <sodipodi:namedview
     id="namedview2852"
     pagecolor="#ffffff"
     bordercolor="#000000"
     borderopacity="0.25"
     inkscape:showpageshadow="2"
     inkscape:pageopacity="0.0"
     inkscape:pagecheckerboard="0"
     inkscape:deskcolor="#d1d1d1"
     showgrid="false"
     inkscape:zoom="2.5770114"
     inkscape:cx="103.41437"
     inkscape:cy="104.57851"
     inkscape:window-width="1920"
     inkscape:window-height="1017"
     inkscape:window-x="-8"
     inkscape:window-y="-8"
     inkscape:window-maximized="1"
     inkscape:current-layer="g2856" />
  <g
     inkscape:groupmode="layer"
     inkscape:label="Image"
     id="g2856">
    <rect
       style="fill:#9347ff;fill-opacity:1"
       id="rect4120"
       width="256.88672"
       height="262.31937"
       x="-19.014275"
       y="-13.193578" />
    <path
       style="fill:#000000"
       d="M 80.701072,192.36774 C 80.315482,191.98215 80,186.56667 80,180.33333 V 169 H 65.5 51 V 125.01943 81.038855 L 63.138731,68.519428 75.277461,56 H 121.63873 168 V 90.758524 125.51705 L 146.24166,147.25852 124.48333,169 h -9.47723 -9.47722 l -12.063368,12.03441 c -6.634853,6.61892 -12.378851,11.71892 -12.76444,11.33333 z M 111.5,148 l 7.95308,-8 h 9.54133 9.54132 L 148.76787,129.73293 159,119.46585 V 92.732925 66 H 120 81 v 37 37 h 11.076147 11.076143 l -0.32614,8.00235 c -0.17938,4.40129 -0.0906,8.00129 0.19731,8 C 103.31136,156.00135 107.12581,152.4 111.5,148 Z M 108,98 V 83 h 4.5 4.5 v 15 15 h -4.5 -4.5 z m 26.71372,14.38039 C 134.32117,111.98784 134,105.21667 134,97.333333 V 83 h 5.02673 5.02674 l -0.27674,14.75 -0.27673,14.75 -4.03628,0.29705 c -2.21995,0.16338 -4.35745,-0.0241 -4.75,-0.41666 z"
       id="path4066" />
    <path
       style="fill:#ffffff;fill-opacity:1;stroke-width:0.388046"
       d="m 103.01766,155.01053 c -0.14426,-0.23343 -0.1354,-3.73087 0.0197,-7.7721 l 0.282,-7.3477 H 92.210527 81.101698 V 103.02632 66.161912 h 38.804642 38.80464 v 26.680936 26.680932 l -10.18892,10.18348 -10.18891,10.18347 h -9.50899 -9.50899 l -6.20419,6.23521 c -7.33454,7.37122 -9.72705,9.47721 -10.09332,8.88459 z m 14.17235,-57.028813 v -15.13381 h -4.65655 -4.65656 v 15.13381 15.133813 h 4.65656 4.65655 z m 23.96585,14.888283 2.3491,-0.24553 0.22103,-4.70206 c 0.12157,-2.58614 0.29196,-9.285865 0.37864,-14.888285 l 0.15761,-10.186218 h -5.19311 -5.19312 v 11.776868 c 0,14.802075 0.20866,17.663025 1.32102,18.112755 1.01084,0.4087 2.91175,0.45095 5.95883,0.13247 z"
       id="path4262" />
  </g>
</svg>
