<?xml version="1.0" encoding="UTF-8" standalone="no"?>
<!-- Created with Inkscape (http://www.inkscape.org/) -->

<svg
   version="1.1"
   id="svg1099"
   width="225"
   height="225"
   viewBox="0 0 225 225"
   sodipodi:docname="whimsical.svg"
   inkscape:version="1.2.2 (732a01da63, 2022-12-09)"
   xmlns:inkscape="http://www.inkscape.org/namespaces/inkscape"
   xmlns:sodipodi="http://sodipodi.sourceforge.net/DTD/sodipodi-0.dtd"
   xmlns:xlink="http://www.w3.org/1999/xlink"
   xmlns="http://www.w3.org/2000/svg"
   xmlns:svg="http://www.w3.org/2000/svg">
  <defs
     id="defs1103">
    <linearGradient
       inkscape:collect="always"
       id="linearGradient4149">
      <stop
         style="stop-color:#000000;stop-opacity:1;"
         offset="0"
         id="stop4147" />
      <stop
         style="stop-color:#d4d6ec;stop-opacity:1;"
         offset="0.65062606"
         id="stop4145" />
    </linearGradient>
    <radialGradient
       inkscape:collect="always"
       xlink:href="#linearGradient4149"
       id="radialGradient4153"
       cx="116.33545"
       cy="117.89153"
       fx="116.33545"
       fy="117.89153"
       r="37.574322"
       gradientTransform="matrix(-0.92808586,-1.5627126,1.1721943,-0.69615933,86.112945,383.90718)"
       gradientUnits="userSpaceOnUse" />
  </defs>
  <sodipodi:namedview
     id="namedview1101"
     pagecolor="#ffffff"
     bordercolor="#000000"
     borderopacity="0.25"
     inkscape:showpageshadow="2"
     inkscape:pageopacity="0.0"
     inkscape:pagecheckerboard="0"
     inkscape:deskcolor="#d1d1d1"
     showgrid="false"
     inkscape:zoom="1.7711111"
     inkscape:cx="58.155583"
     inkscape:cy="34.159348"
     inkscape:window-width="1920"
     inkscape:window-height="1017"
     inkscape:window-x="-8"
     inkscape:window-y="-8"
     inkscape:window-maximized="1"
     inkscape:current-layer="g1105" />
  <g
     inkscape:groupmode="layer"
     inkscape:label="Image"
     id="g1105">
    <rect
       style="fill:#7c13cf;fill-opacity:1;stroke-width:7.559;stroke-linejoin:round;paint-order:markers stroke fill"
       id="rect4119"
       width="257.51285"
       height="259.50906"
       x="-5.589426"
       y="-8.3841391" />
    <path
       style="fill:url(#radialGradient4153);fill-opacity:1;stroke-width:7.559;stroke-linejoin:round;paint-order:markers stroke fill"
       d="m 107.19721,137.93905 -11.478285,11.47829 c -1.374163,1.72207 -2.568027,1.92348 -4.491504,0 L 55.644735,113.83465 c -1.438285,-1.44758 -1.199357,-2.84299 0,-4.04235 L 91.202469,74.234567 h 4.416644 L 109.1061,87.721554 116.08041,80.747247 98.413827,63.080668 c -4.083324,-4.083324 -6.57374,-3.806624 -10.380364,0 L 42.22013,108.894 c -1.663306,1.66331 -1.771479,4.317 0,6.08848 l 47.460218,47.46022 c 2.989848,2.98985 5.082883,3.05173 8.134611,0 l 17.541811,-17.54181 z"
       id="path1580"
       sodipodi:nodetypes="ccccccccccccccccc" />
    <path
       style="fill:#ffffff;fill-opacity:1;stroke-width:7.559;stroke-linejoin:round;paint-order:markers stroke fill"
       d="m 81.84517,108.59457 c -3.177324,3.17732 -3.439906,5.34347 0,8.78338 l 44.81522,44.81522 c 4.36654,4.36654 7.24305,3.83599 11.07904,0 l 47.46022,-47.46022 c 1.66082,-1.66082 1.68147,-2.85993 0,-4.5414 L 135.71826,60.710152 c -1.66484,-1.664845 -3.02498,-1.741012 -4.76599,0 z"
       id="path1730"
       sodipodi:nodetypes="ccccccccc" />
  </g>
</svg>
