<?xml version="1.0" encoding="UTF-8" standalone="no"?>
<!-- Created with Inkscape (http://www.inkscape.org/) -->

<svg
   version="1.1"
   id="svg1099"
   width="186"
   height="186"
   viewBox="0 0 186 186"
   sodipodi:docname="xmind.svg"
   inkscape:version="1.2.2 (732a01da63, 2022-12-09)"
   xmlns:inkscape="http://www.inkscape.org/namespaces/inkscape"
   xmlns:sodipodi="http://sodipodi.sourceforge.net/DTD/sodipodi-0.dtd"
   xmlns="http://www.w3.org/2000/svg"
   xmlns:svg="http://www.w3.org/2000/svg">
  <defs
     id="defs1103" />
  <sodipodi:namedview
     id="namedview1101"
     pagecolor="#ffffff"
     bordercolor="#000000"
     borderopacity="0.25"
     inkscape:showpageshadow="2"
     inkscape:pageopacity="0.0"
     inkscape:pagecheckerboard="0"
     inkscape:deskcolor="#d1d1d1"
     showgrid="false"
     inkscape:zoom="3.0299145"
     inkscape:cx="141.09309"
     inkscape:cy="60.232722"
     inkscape:window-width="1920"
     inkscape:window-height="1017"
     inkscape:window-x="-8"
     inkscape:window-y="-8"
     inkscape:window-maximized="1"
     inkscape:current-layer="g1105" />
  <g
     inkscape:groupmode="layer"
     inkscape:label="Image"
     id="g1105">
    <rect
       style="fill:#ed581e;fill-opacity:1;stroke-width:7.559;stroke-linejoin:round;paint-order:markers stroke fill"
       id="rect5995"
       width="229.04936"
       height="213.86742"
       x="-34.324402"
       y="-17.162201" />
    <path
       style="fill:#fdf6f5;stroke-width:7.559;stroke-linejoin:round;paint-order:markers stroke fill;fill-opacity:1"
       d="m 49.708908,52.276035 c -4.289141,-4.289141 0.666716,-10.891878 7.001255,-7.23463 l 34.402815,31.630627 c 1.174262,1.174262 3.095924,1.090673 4.365774,-0.179178 L 129.52321,45.041405 c 5.26845,-4.666339 12.91889,2.483867 7.23463,8.168131 L 99.827933,85.526131 c -2.582799,2.582799 -10.079853,2.107416 -12.158956,0.02831 z"
       id="path1580"
       sodipodi:nodetypes="ccccccccc" />
    <path
       style="fill:#fdf6f5;stroke-width:7.559;stroke-linejoin:round;paint-order:markers stroke fill;fill-opacity:1"
       d="m 49.708908,132.67833 c -4.289141,4.28914 0.666716,10.89188 7.001255,7.23463 l 34.402815,-31.63062 c 1.174262,-1.17427 3.095924,-1.09068 4.365774,0.17917 l 34.044458,31.45145 c 5.26845,4.66634 12.91889,-2.48386 7.23463,-8.16813 L 99.827933,99.428237 C 97.245134,96.845438 89.74808,97.320821 87.668977,99.399927 Z"
       id="path1678"
       sodipodi:nodetypes="ccccccccc" />
  </g>
</svg>
