<?xml version="1.0" encoding="UTF-8" standalone="no"?>
<!-- Created with Inkscape (http://www.inkscape.org/) -->

<svg
   version="1.1"
   id="svg12058"
   width="225"
   height="225"
   viewBox="0 0 225 225"
   sodipodi:docname="YouTube.svg"
   inkscape:version="1.2.2 (732a01da63, 2022-12-09)"
   xmlns:inkscape="http://www.inkscape.org/namespaces/inkscape"
   xmlns:sodipodi="http://sodipodi.sourceforge.net/DTD/sodipodi-0.dtd"
   xmlns="http://www.w3.org/2000/svg"
   xmlns:svg="http://www.w3.org/2000/svg">
  <defs
     id="defs12062" />
  <sodipodi:namedview
     id="namedview12060"
     pagecolor="#ffffff"
     bordercolor="#000000"
     borderopacity="0.25"
     inkscape:showpageshadow="2"
     inkscape:pageopacity="0.0"
     inkscape:pagecheckerboard="0"
     inkscape:deskcolor="#d1d1d1"
     showgrid="false"
     inkscape:zoom="2.5770114"
     inkscape:cx="142.21901"
     inkscape:cy="137.9505"
     inkscape:window-width="1920"
     inkscape:window-height="1017"
     inkscape:window-x="-8"
     inkscape:window-y="-8"
     inkscape:window-maximized="1"
     inkscape:current-layer="g12064" />
  <g
     inkscape:groupmode="layer"
     inkscape:label="Image"
     id="g12064">
    <path
       style="fill:#ff0000"
       d="M 71,190.38944 C 45.250691,189.14803 30.019022,187.82823 24.915684,186.39631 15.085359,183.63806 8.433004,176.37713 6.0784898,165.83586 4.1991348,157.42189 2.0065652,130.31803 2.0065652,115.5 c 0,-14.81803 2.1925696,-41.921887 4.0719246,-50.335855 C 8.5395253,54.145965 16.536644,45.705291 26.5,43.609967 c 24.344565,-5.119734 146.74157,-4.82229 170.10418,0.41338 12.7714,2.862131 18.53251,10.557897 21.41673,28.608759 1.97895,12.385276 2.91379,42.501194 1.90493,61.367894 -1.59687,29.86325 -3.54465,38.51156 -10.22442,45.39719 -6.14212,6.33142 -12.47692,8.33397 -30.43548,9.62123 C 164.5543,190.07295 85.262501,191.07706 71,190.38944 Z M 147,114 90,82 v 64 z"
       id="path13276"
       sodipodi:nodetypes="sssssssssssscccc" />
  </g>
</svg>
