<?xml version="1.0" encoding="UTF-8" standalone="no"?>
<!-- Created with Inkscape (http://www.inkscape.org/) -->

<svg
   version="1.1"
   id="svg2546"
   width="225"
   height="225"
   viewBox="0 0 225 225"
   sodipodi:docname="均一.svg"
   inkscape:version="1.2.2 (732a01da63, 2022-12-09)"
   xmlns:inkscape="http://www.inkscape.org/namespaces/inkscape"
   xmlns:sodipodi="http://sodipodi.sourceforge.net/DTD/sodipodi-0.dtd"
   xmlns="http://www.w3.org/2000/svg"
   xmlns:svg="http://www.w3.org/2000/svg">
  <defs
     id="defs2550" />
  <sodipodi:namedview
     id="namedview2548"
     pagecolor="#ffffff"
     bordercolor="#000000"
     borderopacity="0.25"
     inkscape:showpageshadow="2"
     inkscape:pageopacity="0.0"
     inkscape:pagecheckerboard="0"
     inkscape:deskcolor="#d1d1d1"
     showgrid="false"
     inkscape:zoom="2.5770114"
     inkscape:cx="104.96655"
     inkscape:cy="99.145856"
     inkscape:window-width="1920"
     inkscape:window-height="1017"
     inkscape:window-x="-8"
     inkscape:window-y="-8"
     inkscape:window-maximized="1"
     inkscape:current-layer="g2552" />
  <g
     inkscape:groupmode="layer"
     inkscape:label="Image"
     id="g2552">
    <path
       style="fill:#64b244;fill-opacity:1;stroke-width:0.388046"
       d="M 46.347551,115.3508 11.366454,79.945565 23.205077,68.106941 35.043701,56.268317 70.355175,91.578191 105.66665,126.88807 93.737322,138.82205 c -6.561127,6.56369 -12.037176,11.93398 -12.168999,11.93398 -0.13182,0 -15.981168,-15.93236 -35.220772,-35.40523 z"
       id="path3311" />
    <path
       style="fill:#64b244;fill-opacity:1;stroke-width:0.388046"
       d="M 69.610543,46.596282 57.808991,34.78997 64.179475,27.894916 c 3.503766,-3.792279 8.640555,-9.378652 11.415087,-12.414162 2.774531,-3.035509 5.132953,-5.5340622 5.240936,-5.5523394 0.107983,-0.018277 5.695157,5.4676714 12.415942,12.1909974 L 105.47105,34.343641 93.441572,46.373117 81.412095,58.402594 Z"
       id="path3313" />
    <path
       style="fill:#64b244;fill-opacity:1;stroke-width:0.388046"
       d="M 154.75602,131.74174 119.44538,96.429508 131.51891,84.355984 143.59243,72.28246 163.71138,92.601981 c 11.06542,11.175739 26.9337,27.174339 35.26285,35.552459 l 15.1439,15.23294 -11.82853,11.8333 c -6.50569,6.50831 -11.91728,11.8333 -12.02574,11.8333 -0.10847,0 -16.08699,-15.89051 -35.50784,-35.31224 z"
       id="path3315" />
    <path
       style="fill:#64b244;fill-opacity:1;stroke-width:0.388046"
       d="m 131.66392,201.39274 -12.21703,-12.22165 12.12408,-12.12408 12.12409,-12.12409 11.64221,11.63737 c 6.40322,6.40055 11.64222,11.74489 11.64222,11.87632 0,0.20117 -18.90312,20.85975 -22.06421,24.11323 l -1.03432,1.06455 z"
       id="path3317" />
    <path
       style="fill:#ec584e;fill-opacity:1;stroke-width:0.388046"
       d="m 69.176735,201.38102 -11.817703,-11.82247 35.407654,-35.40766 35.407654,-35.40765 12.04118,12.04118 12.04118,12.04118 -28.62991,28.31655 c -15.74645,15.5741 -31.780458,31.40912 -35.63113,35.18894 l -7.001222,6.8724 z"
       id="path3956" />
    <path
       style="fill:#ec584e;fill-opacity:1;stroke-width:0.388046"
       d="m 23.470341,154.37286 -12.516693,-11.53907 12.239049,-12.23905 12.23905,-12.23905 12.030249,12.03025 12.03025,12.03025 -11.752606,11.74787 -11.752606,11.74787 z"
       id="path3958" />
    <path
       style="fill:#ec584e;fill-opacity:1;stroke-width:0.388046"
       d="M 84.78615,92.42757 72.637762,80.274589 77.313163,75.837562 C 79.884633,73.3972 95.883701,57.616649 112.86665,40.769672 l 30.87808,-30.630866 11.90789,11.907889 11.90788,11.907888 -35.31298,35.312985 -35.312982,35.312982 z"
       id="path3960" />
    <path
       style="fill:#ec584e;fill-opacity:1;stroke-width:0.388046"
       d="m 177.64999,92.936334 -12.02553,-12.030218 11.83385,-11.806536 11.83385,-11.806535 10.53003,9.770071 c 5.79152,5.37354 11.44145,10.623738 12.5554,11.667107 l 2.02538,1.897034 -12.16505,12.169648 c -6.69078,6.693308 -12.25446,12.169645 -12.36373,12.169645 -0.10927,0 -5.61017,-5.413594 -12.2242,-12.030216 z"
       id="path3962" />
  </g>
</svg>
